<?xml version="1.0" encoding="UTF-8"?>
<!DOCTYPE svg PUBLIC "-//W3C//DTD SVG 1.1//EN" "http://www.w3.org/Graphics/SVG/1.1/DTD/svg11.dtd">
<svg width="337mm" height="190mm" viewBox="0 0 33700 19000" version="1.1" xmlns="http://www.w3.org/2000/svg" xmlns:xlink="http://www.w3.org/1999/xlink" stroke-width="28.222" stroke-linejoin="round" xml:space="preserve">
 <path fill="rgb(255,255,255)" stroke="none" d="M 16888,18965 L 29,18965 29,0 33746,0 33746,18965 16888,18965 Z"/>
 <path fill="none" stroke="rgb(179,179,179)" stroke-linejoin="round" d="M 16554,16412 L 3516,16412 3516,2269 29591,2269 29591,16412 16554,16412 Z"/>
 <path fill="none" stroke="rgb(179,179,179)" stroke-linejoin="round" d="M 29591,16411 L 3516,16411"/>
 <path fill="none" stroke="rgb(179,179,179)" stroke-linejoin="round" d="M 29591,14390 L 3516,14390"/>
 <path fill="none" stroke="rgb(179,179,179)" stroke-linejoin="round" d="M 29591,12369 L 3516,12369"/>
 <path fill="none" stroke="rgb(179,179,179)" stroke-linejoin="round" d="M 29591,10349 L 3516,10349"/>
 <path fill="none" stroke="rgb(179,179,179)" stroke-linejoin="round" d="M 29591,8329 L 3516,8329"/>
 <path fill="none" stroke="rgb(179,179,179)" stroke-linejoin="round" d="M 29591,6309 L 3516,6309"/>
 <path fill="none" stroke="rgb(179,179,179)" stroke-linejoin="round" d="M 29591,4288 L 3516,4288"/>
 <path fill="none" stroke="rgb(179,179,179)" stroke-linejoin="round" d="M 29591,2267 L 3516,2267"/>
 <path fill="none" stroke="rgb(179,179,179)" stroke-linejoin="round" d="M 3516,16561 L 3516,16411"/>
 <path fill="none" stroke="rgb(179,179,179)" stroke-linejoin="round" d="M 3516,16561 L 3516,16411"/>
 <path fill="none" stroke="rgb(179,179,179)" stroke-linejoin="round" d="M 9184,16561 L 9184,16411"/>
 <path fill="none" stroke="rgb(179,179,179)" stroke-linejoin="round" d="M 9184,16561 L 9184,16411"/>
 <path fill="none" stroke="rgb(179,179,179)" stroke-linejoin="round" d="M 14853,16561 L 14853,16411"/>
 <path fill="none" stroke="rgb(179,179,179)" stroke-linejoin="round" d="M 14853,16561 L 14853,16411"/>
 <path fill="none" stroke="rgb(179,179,179)" stroke-linejoin="round" d="M 20521,16561 L 20521,16411"/>
 <path fill="none" stroke="rgb(179,179,179)" stroke-linejoin="round" d="M 20521,16561 L 20521,16411"/>
 <path fill="none" stroke="rgb(179,179,179)" stroke-linejoin="round" d="M 26189,16561 L 26189,16411"/>
 <path fill="none" stroke="rgb(179,179,179)" stroke-linejoin="round" d="M 26189,16561 L 26189,16411"/>
 <path fill="none" stroke="rgb(179,179,179)" stroke-linejoin="round" d="M 3516,16411 L 29591,16411"/>
 <path fill="none" stroke="rgb(179,179,179)" stroke-linejoin="round" d="M 3366,16411 L 3516,16411"/>
 <path fill="none" stroke="rgb(179,179,179)" stroke-linejoin="round" d="M 3366,16411 L 3516,16411"/>
 <path fill="none" stroke="rgb(179,179,179)" stroke-linejoin="round" d="M 3366,14390 L 3516,14390"/>
 <path fill="none" stroke="rgb(179,179,179)" stroke-linejoin="round" d="M 3366,14390 L 3516,14390"/>
 <path fill="none" stroke="rgb(179,179,179)" stroke-linejoin="round" d="M 3366,12369 L 3516,12369"/>
 <path fill="none" stroke="rgb(179,179,179)" stroke-linejoin="round" d="M 3366,12369 L 3516,12369"/>
 <path fill="none" stroke="rgb(179,179,179)" stroke-linejoin="round" d="M 3366,10349 L 3516,10349"/>
 <path fill="none" stroke="rgb(179,179,179)" stroke-linejoin="round" d="M 3366,10349 L 3516,10349"/>
 <path fill="none" stroke="rgb(179,179,179)" stroke-linejoin="round" d="M 3366,8329 L 3516,8329"/>
 <path fill="none" stroke="rgb(179,179,179)" stroke-linejoin="round" d="M 3366,8329 L 3516,8329"/>
 <path fill="none" stroke="rgb(179,179,179)" stroke-linejoin="round" d="M 3366,6309 L 3516,6309"/>
 <path fill="none" stroke="rgb(179,179,179)" stroke-linejoin="round" d="M 3366,6309 L 3516,6309"/>
 <path fill="none" stroke="rgb(179,179,179)" stroke-linejoin="round" d="M 3366,4288 L 3516,4288"/>
 <path fill="none" stroke="rgb(179,179,179)" stroke-linejoin="round" d="M 3366,4288 L 3516,4288"/>
 <path fill="none" stroke="rgb(179,179,179)" stroke-linejoin="round" d="M 3366,2267 L 3516,2267"/>
 <path fill="none" stroke="rgb(179,179,179)" stroke-linejoin="round" d="M 3366,2267 L 3516,2267"/>
 <path fill="none" stroke="rgb(179,179,179)" stroke-linejoin="round" d="M 3516,16411 L 3516,2267"/>
 <path fill="none" stroke="rgb(167,169,172)" stroke-width="80" stroke-linejoin="round" d="M 3545,16374 L 3556,16268 3567,16190 3579,16146 3590,16077 3602,15516 3613,15577 3624,15562 3636,15546 3647,15530 3658,15523 3670,15514 3681,15501 3693,15494 3704,15459 3715,15453 3727,15451 3738,15448 3749,15445 3772,15439 3783,15439 3795,15433 3806,15431 3818,15428 3829,15426 3840,15421 3852,15411 3863,15398 3874,15393 3897,15349 3909,15325 3920,15299 3931,15239 3943,15226 3965,15226 3977,15226 3988,15226 4000,15226 4011,15226 4034,15226 4045,15226 4056,15226 4068,15226 4079,15226 4102,15226 4113,15384 4125,15384 4136,15384 4159,15332 4170,15147 4181,14923 4193,14697 4204,14231 4216,13283 4227,12439 4238,11814 4250,11009 4261,10498 4272,10462 4284,10420 4295,10381 4307,10337 4318,10292 4329,10248 4341,10204 4352,10165 4363,10134 4375,10100 4386,10063 4398,10032 4409,10006 4420,9972 4432,9933 4443,9894 4454,9857 4466,9821 4477,9782 4488,9693 4500,9521 4511,9387 4523,9249 4534,9145 4545,9030 4557,9022 4568,8989 4579,8978 4591,8978 4602,8978 4625,8970 4636,8970 4648,8970 4659,8970 4670,8970 4693,8970 4705,8970 4716,8970 4727,8970 4750,8970 4761,8970 4773,8970 4784,8970 4796,8970 4818,8970 4830,8970 4841,8970 4852,8970 4864,8970 4886,8970 4898,8970 4909,8970 4921,8970 4932,8970 4955,8970 4966,8970 4977,8970 4989,8970 5000,8970 5023,8970 5034,8970 5046,8970 5057,8970 5080,8970 5091,8970 5102,8970 5114,8970 5125,8970 5148,8970 5159,8970 5171,8970 5182,8970 5193,8970 5216,8970 5228,8970 5239,8970 5250,8970 5262,8970 5284,8970 5296,8970 5307,8970 5319,8970 5341,8970 5353,8970 5364,8970 5375,8970 5387,8970 5410,8970 5421,8970 5432,8970 5444,8970 5455,8970 5478,8970 5489,8970 5500,8970 5512,8970 5523,8970 5546,8970 5557,8970 5569,8970 5580,8970 5591,8970 5614,8970 5626,8970 5637,8970 5648,8970 5671,8970 5682,8970 5694,8970 5705,8970 5716,8970 5739,8970 5751,8970 5762,8970 5773,8970 5785,8970 5807,8970 5819,8970 5830,8970 5842,8970 5853,8970 5876,8970 5887,8970 5898,8970 5910,8970 5921,8970 5944,8970 5955,8970 5967,8970 5978,8970 6001,8970 6012,8970 6024,8970 6035,8970 6046,8970 6069,8970 6080,8970 6092,8970 6103,8970 6114,8970 6137,8970 6149,8970 6160,8970 6171,8970 6183,8970 6205,8970 6217,8970 6228,8970 6240,8970 6262,8970 6274,8970 6285,8970 6296,9644 6308,9644 6331,9644 6342,9644 6353,9644 6365,9644 6376,9644 6399,9644 6410,9644 6421,9644 6433,9644 6444,9644 6467,9644 6478,9644 6490,9644 6501,9644 6512,9644 6524,9610 6535,9381 6547,9150 6558,8928 6569,8704 6581,8485 6592,8212 6603,7907 6615,7668 6626,7425 6638,7191 6649,6925 6660,6662 6672,6511 6683,6417 6694,6352 6706,6342 6717,6329 6728,6318 6740,6313 6751,6303 6763,6290 6774,6279 6785,6269 6797,6256 6808,6245 6819,6232 6831,6222 6842,6212 6854,6199 6865,6188 6876,6175 6888,6160 6899,6149 6910,6136 6922,6126 6933,6113 6945,6102 6956,6089 6967,6079 6979,6068 6990,6055 7001,6042 7013,6032 7024,6032 7035,6019 7047,6006 7058,5988 7070,5977 7081,5964 7092,5954 7104,5941 7126,5917 7138,5904 7149,5891 7161,5881 7172,5870 7183,5860 7195,5850 7206,5839 7217,5826 7229,5816 7240,5805 7252,5792 7263,5782 7274,5769 7286,5758 7297,5748 7308,5735 7320,5722 7331,5709 7343,5693 7354,5683 7365,5675 7388,5675 7399,5662 7411,5646 7422,5633 7433,5620 7445,5607 7456,5597 7468,5584 7479,5573 7490,5563 7502,5550 7513,5540 7524,5495 7536,5461 7547,5422 7559,5368 7570,5318 7581,5271 7593,5224 7604,5222 7615,5222 7627,5222 7638,5206 7649,5162 7661,5112 7672,5060 7684,5016 7695,4961 7706,4920 7718,4870 7729,4818 7740,4766 7752,4727 7763,4719 7786,4719 7797,4719 7809,4719 7820,4719 7843,4719 7854,4719 7866,4719 7877,4719 7888,4719 7911,4719 7922,4719 7934,4719 7945,4719 7956,4719 7979,4719 7991,4719 8002,4719 8013,4719 8025,4719 8047,4719 8059,4719 8070,4719 8082,4719 8093,4719 8116,4719 8127,4719 8138,4719 8150,4719 8173,4719 8184,4719 8195,4719 8207,4719 8218,4719 8241,4719 8252,4719 8263,4719 8275,4719 8286,4719 8309,4719 8320,4719 8332,4719 8343,4719 8354,4719 8377,4719 8389,4719 8400,4719 8411,4719 8434,4719 8445,4719 8457,4719 8468,4719 8480,4719 8502,4719 8514,4719 8525,4719 8536,4719 8548,4719 8571,4719 8582,4719 8593,4719 8605,4719 8616,4719 8639,4719 8650,4719 8661,4719 8673,4719 8684,4719 8707,4719 8718,4719 8730,4719 8741,4719 8764,4719 8775,4719 8787,4719 8798,4719 8809,4719 8832,4719 8843,4719 8855,4719 8866,4719 8878,4719 8900,4719 8912,4719 8923,4719 8934,4719 8946,4719 8968,4719 8980,4719 8991,4719 9003,4719 9014,4719 9037,4719 9048,4719 9059,4719 9071,4719 9094,4719 9105,4719 9116,4719 9128,4719 9139,4719 9162,4719 9173,4719 9184,4719 9196,4719 9207,4719 9230,4719 9241,4719 9253,4719 9264,4719 9275,4719 9298,4719 9310,4719 9321,4719 9332,4719 9355,4719 9366,4719 9378,4719 9389,4719 9400,4719 9423,4719 9435,4719 9446,4719 9457,4719 9469,4719 9491,4719 9503,4719 9514,4719 9526,4719 9537,4719 9560,4719 9571,4719 9582,4719 9594,4719 9605,4719 9628,4719 9639,4719 9651,4719 9662,4719 9685,4719 9696,4719 9707,4719 9719,4719 9730,4719 9753,4719 9764,4719 9776,4719 9787,4719 9798,4719 9821,4719 9833,4719 9844,4719 9855,4719 9867,4719 9889,4719 9901,4719 9912,4719 9923,4719 9935,4719 9958,4719 9969,4719 9980,4719 9992,4719 10014,4719 10026,4719 10037,4719 10049,4719 10060,4719 10083,4719 10094,4719 10105,4719 10117,4719 10128,4719 10151,4719 10162,4719 10174,4719 10185,4719 10196,4719 10219,4719 10230,4719 10242,4719 10253,4719 10276,4719 10287,4719 10299,4719 10310,4719 10321,4719 10344,4719 10356,4719 10367,4719 10378,4719 10390,4719 10412,4719 10424,4719 10435,4719 10446,4719 10458,4719 10481,4719 10492,4719 10503,4719 10515,4719 10526,4719 10549,4719 10560,4719 10572,4719 10583,4719 10606,4719 10617,4719 10628,4719 10640,4719 10651,4719 10674,4719 10685,4719 10697,4719 10708,4719 10719,4719 10742,4719 10753,4719 10765,4719 10776,4719 10788,4719 10810,4719 10822,4719 10833,4719 10844,4719 10867,4719 10879,4719 10890,4719 10901,4719 10913,4719 10935,4719 10947,4719 10958,4719 10969,4719 10981,4719 11004,4719 11015,4719 11026,4719 11038,4719 11049,4719 11072,4719 11083,4719 11095,4719 11106,4719 11117,4719 11140,4719 11151,4719 11163,4719 11174,4719 11197,4719 11208,4719 11220,4719 11231,4719 11242,4719 11265,4719 11276,4719 11288,4719 11299,4719 11311,4719 11333,4719 11345,4719 11356,4719 11367,4719 11379,4719 11402,4719 11413,4719 11424,4719 11436,4719 11447,4719 11470,4719 11481,4719 11492,4719 11504,4719 11527,4719 11538,4719 11549,4719 11561,4719 11572,4719 11595,4719 11606,4719 11618,4719 11629,4719 11640,4719 11663,4719 11674,4719 11686,4719 11697,4719 11709,4719 11731,4719 11743,4719 11754,4719 11765,4719 11788,4719 11799,4719 11811,4719 11822,4719 11834,4719 11856,4719 11868,4719 11879,4719 11890,4719 11902,4719 11925,4719 11936,4719 11947,4719 11959,4719 11970,4719 11993,4719 12004,4719 12015,4719 12027,4719 12038,4719 12061,4719 12072,4719 12084,4719 12095,4719 12118,4719 12129,4719 12141,4719 12152,4719 12163,4719 12186,4719 12197,4719 12209,4719 12220,4719 12231,4719 12254,4719 12266,4719 12277,4719 12288,4719 12300,4719 12322,4719 12334,4719 12345,4719 12357,4719 12368,4719 12391,4719 12402,4719 12413,4719 12425,4719 12448,4719 12459,4719 12470,4719 12482,4719 12493,4719 12516,4719 12527,4719 12538,4719 12550,4719 12561,4719 12584,4719 12595,4719 12607,4719 12618,4719 12629,4719 12652,4719 12664,4719 12675,4719 12686,4719 12709,4719 12720,4719 12732,4719 12743,4719 12755,4719 12777,4719 12789,4719 12800,4719 12811,4719 12823,4719 12846,4719 12857,4719 12868,4719 12880,4719 12891,4719 12914,4719 12925,4719 12936,4719 12948,4719 12959,4719 12982,4719 12993,4719 13005,4719 13016,4719 13039,4719 13050,4719 13062,4719 13073,4719 13084,4719 13107,4719 13118,4719 13130,4719 13141,4719 13153,4960 13164,6455 13175,9315 13187,9614 13198,9614 13209,9614 13221,9412 13232,9258 13244,9250 13255,9243 13266,9235 13278,9224 13289,9214 13300,9204 13312,9196 13323,9185 13334,9172 13346,9165 13357,9151 13369,9141 13380,9105 13391,9073 13403,9053 13414,9053 13425,9021 13437,9021 13448,9021 13460,9021 13471,9021 13482,9021 13505,9021 13516,9021 13528,9021 13539,9021 13550,9021 13573,9021 13585,9021 13596,9021 13607,9021 13630,9021 13641,9021 13653,9021 13664,9021 13676,9021 13698,9021 13710,9021 13721,9021 13732,9021 13744,9021 13767,9021 13778,9021 13789,9021 13801,9021 13812,9021 13835,9021 13846,9021 13857,9021 13869,9021 13880,9021 13903,9021 13914,9021 13926,9021 13937,9021 13960,9021 13971,9021 13983,9021 13994,9021 14005,9021 14028,9021 14039,9021 14051,9021 14062,9021 14074,9021 14096,9021 14108,9021 14119,9021 14130,9021 14142,9021 14164,9021 14176,9021 14187,9021 14199,9021 14210,9021 14233,9021 14244,9021 14255,9021 14267,9021 14290,9021 14301,9021 14312,9021 14324,9021 14335,9021 14358,9021 14369,9021 14381,9021 14392,9021 14403,9021 14426,9021 14437,9021 14449,9021 14460,9021 14472,9021 14494,9021 14506,9021 14517,9021 14528,9021 14551,9021 14562,9021 14574,9613 14585,9621 14597,9621 14619,9563 14631,9205 14642,9166 14653,9150 14665,9129 14676,9116 14688,9106 14699,9090 14710,9080 14722,9064 14733,9046 14744,9004 14756,8965 14767,8926 14778,8916 14790,8908 14801,8908 14824,8908 14835,8908 14847,8908 14858,8908 14881,8908 14892,8908 14904,8908 14915,8908 14926,8908 14949,8908 14960,8908 14972,8908 14983,8908 14995,8908 15017,8908 15029,8908 15040,8908 15051,8908 15063,8908 15086,8908 15097,8908 15108,8908 15120,8908 15131,8908 15154,8908 15165,8908 15177,8908 15188,8908 15211,8908 15222,8908 15233,8908 15245,8908 15256,8908 15279,8908 15290,8908 15302,8908 15313,8908 15324,8908 15347,8908 15358,8908 15370,8908 15381,8908 15393,8908 15415,8908 15427,8908 15438,8908 15449,8908 15461,8908 15483,8908 15495,8908 15506,8908 15518,9578 15529,9593 15540,9593 15552,9593 15563,9552 15574,9539 15586,9529 15597,9517 15609,9506 15620,9494 15631,9461 15643,9427 15654,9427 15677,9427 15688,9427 15700,9427 15711,9427 15722,9427 15745,9427 15756,9427 15768,9427 15779,9427 15802,9427 15813,9427 15825,9427 15836,9427 15847,9427 15870,9427 15881,9427 15893,9427 15904,9427 15916,9427 15938,9427 15950,9427 15961,9427 15972,9427 15984,9427 16007,9427 16018,9427 16029,9427 16041,9427 16052,9427 16075,9427 16086,9427 16098,9427 16109,9427 16132,9427 16143,9427 16154,9427 16166,9427 16177,9427 16200,9427 16211,9427 16223,9427 16234,9427 16245,9427 16268,9427 16279,9427 16291,9427 16302,9427 16314,9427 16336,9427 16348,9427 16359,9427 16370,9427 16382,9427 16405,9427 16416,9427 16427,9427 16439,9427 16461,9427 16473,9585 16484,9595 16496,9595 16507,9595 16530,9595 16541,9595 16552,9595 16564,9595 16575,9595 16598,9595 16609,9600 16621,9600 16632,9579 16643,9561 16655,9543 16666,9506 16677,9471 16689,9471 16700,9471 16723,9471 16734,9471 16746,9471 16757,9471 16768,9471 16791,9471 16803,9471 16814,9471 16825,9471 16837,9471 16859,9471 16871,9471 16882,9471 16892,9471 16904,9471 16927,9597 16938,9555 16949,9532 16961,9516 16972,9506 16983,9460 16995,9441 17006,9441 17018,9441 17029,9441 17052,9441 17063,9441 17074,9441 17086,9441 17097,9441 17120,9441 17131,9441 17143,9441 17154,9441 17165,9441 17188,9441 17199,9441 17211,9441 17222,9441 17234,9441 17256,9441 17268,9574 17279,9574 17290,9574 17302,9574 17325,9418 17336,9202 17347,8926 17359,8772 17370,8710 17381,8692 17393,8673 17404,8658 17416,8639 17427,8619 17438,8603 17450,8582 17461,8559 17472,8554 17484,8538 17495,8520 17506,8504 17518,8486 17529,8468 17541,8447 17552,8431 17563,8413 17575,8395 17586,8379 17597,8361 17609,8343 17620,8324 17632,8306 17643,8290 17654,8290 17666,8244 17677,8197 17688,8142 17700,8087 17711,8027 17722,8004 17734,8004 17745,7939 17757,7887 17768,7863 17779,7863 17791,7863 17802,7863 17813,7863 17825,7863 17848,7863 17859,7863 17870,7863 17882,7863 17893,7863 17916,7863 17927,7863 17939,7863 17950,7863 17973,7863 17984,7863 17995,7863 18007,7863 18018,7863 18041,7863 18052,7863 18064,7863 18075,7863 18086,7863 18109,7863 18120,7863 18132,7863 18143,7863 18155,7863 18177,7863 18189,7863 18200,7863 18211,7863 18223,7863 18245,7863 18257,7863 18268,7863 18280,7863 18302,7863 18314,7863 18325,7863 18336,7863 18348,7863 18371,7863 18382,7863 18393,7863 18405,7863 18416,7863 18439,7863 18450,7863 18462,7863 18473,7863 18484,7863 18507,7863 18518,7863 18530,7863 18541,7863 18564,7863 18575,7863 18587,7863 18598,7863 18609,7863 18632,7863 18643,7863 18655,7863 18666,7863 18678,7863 18700,7863 18712,7863 18723,7863 18734,7863 18746,7863 18768,7863 18780,7863 18791,7863 18803,7863 18814,7863 18837,7863 18848,7863 18859,7863 18871,7863 18894,7863 18905,7863 18916,7863 18928,7863 18939,7863 18962,7863 18973,7863 18984,7863 18996,7863 19007,7863 19030,7863 19041,7863 19053,7863 19064,7863 19075,7863 19098,7863 19110,7863 19121,7863 19132,7863 19144,7863 19166,7863 19178,7863 19189,7863 19201,7863 19223,7863 19235,7863 19246,7863 19257,7863 19269,7863 19291,7863 19303,7863 19314,7863 19326,7863 19337,7863 19360,7863 19371,7863 19382,7863 19394,7863 19405,7951 19417,9531 19428,9554 19439,9554 19451,9554 19462,9554 19485,9554 19496,9554 19507,9554 19519,9554 19530,9554 19542,9383 19553,9086 19564,8696 19576,8383 19587,8331 19598,8310 19610,8297 19621,8284 19633,8271 19644,8253 19655,8237 19667,8229 19678,8214 19689,8201 19701,8185 19712,8172 19724,8156 19735,8143 19746,8128 19758,8115 19769,8102 19780,8084 19792,8068 19803,8052 19815,8039 19826,8024 19837,8005 19849,7987 19860,7972 19883,7964 19894,7945 19905,7896 19917,7846 19928,7787 19940,7732 19951,7706 19962,7706 19974,7664 19985,7589 19996,7552 20019,7552 20031,7552 20042,7552 20053,7552 20065,7552 20087,7552 20099,7552 20110,7552 20121,7552 20144,7552 20156,7552 20167,7552 20178,7552 20190,7552 20212,7552 20224,7552 20235,7552 20247,7552 20258,7552 20281,7552 20292,7552 20303,7552 20315,7552 20326,7552 20349,7552 20360,7552 20372,7552 20383,7552 20406,7552 20417,7552 20428,7552 20440,7552 20451,7552 20474,7552 20485,7552 20497,7552 20508,7552 20519,7552 20542,7552 20554,7552 20565,7552 20576,7552 20588,7552 20610,7552 20622,7552 20633,7552 20645,7552 20656,7552 20679,7552 20690,7552 20701,7552 20713,7552 20736,7552 20747,7552 20758,7552 20770,7552 20781,7552 20804,7552 20815,7552 20826,7552 20838,7552 20849,7552 20872,7552 20883,7552 20895,7552 20906,7552 20917,7552 20940,7552 20952,7552 20963,7552 20974,7552 20986,7552 21008,7552 21020,7552 21031,7552 21043,7552 21065,7552 21077,7552 21088,7552 21099,7552 21111,7552 21133,7552 21145,7552 21156,7552 21168,7552 21179,7552 21202,7552 21213,7552 21224,7552 21236,7552 21247,7552 21270,7552 21281,7552 21293,7552 21304,7552 21327,7552 21338,7552 21349,7552 21361,7552 21372,7552 21395,7552 21406,7552 21418,7552 21429,7552 21440,7552 21463,7552 21475,7552 21486,7552 21497,7552 21509,7552 21531,7552 21543,7552 21554,7552 21566,7552 21577,7552 21600,7552 21611,7552 21622,7552 21634,7552 21656,7552 21668,7552 21679,7552 21691,7552 21702,7552 21725,7552 21736,7552 21747,7552 21759,7552 21770,7552 21793,7552 21804,7552 21816,7552 21827,7552 21838,7552 21861,7552 21873,7552 21884,7552 21895,7552 21907,7552 21929,7552 21941,7552 21952,7552 21963,7552 21986,7552 21998,7552 22009,7552 22020,7552 22032,7552 22054,7552 22066,7552 22077,7552 22089,7552 22100,7552 22123,7552 22134,7552 22145,7552 22157,7552 22168,7552 22191,7552 22202,7552 22214,7552 22225,7801 22236,9532 22248,9532 22259,9532 22270,9169 22282,9148 22293,9137 22305,9114 22316,9093 22327,9075 22339,9062 22350,9046 22361,9033 22373,9015 22384,8958 22396,8885 22407,8877 22418,8846 22430,8846 22452,8846 22464,8846 22475,8846 22487,8846 22498,8846 22521,8846 22532,8846 22543,8846 22555,8846 22577,8846 22589,8846 22600,8846 22612,8846 22623,8846 22646,8846 22657,8846 22668,8846 22680,8846 22691,8846 22714,8846 22725,8846 22737,8846 22748,8846 22759,8846 22782,8846 22794,8846 22805,8846 22816,8846 22828,8846 22850,8846 22862,8846 22873,8846 22884,8846 22907,8846 22919,8846 22930,8846 22941,8846 22953,8846 22975,8846 22987,8846 22998,8846 23010,8846 23021,8846 23044,8846 23055,8846 23066,8846 23078,8846 23089,8846 23112,8846 23123,8846 23135,8846 23146,8846 23169,8846 23180,8846 23192,8846 23203,8846 23214,8846 23237,8846 23248,8846 23260,8846 23271,8846 23282,8846 23305,9528 23317,9528 23328,9528 23339,9528 23351,9432 23362,9305 23373,9292 23385,9276 23396,9263 23408,9250 23419,9237 23430,9224 23442,9211 23453,9200 23464,9187 23476,9177 23487,9164 23498,9154 23510,9138 23521,9127 23533,9109 23544,9083 23555,9052 23567,9000 23578,8940 23589,8924 23601,8924 23612,8924 23635,8924 23646,8924 23658,8924 23669,8924 23680,8924 23703,8924 23715,8924 23726,8924 23737,8924 23749,8924 23771,8924 23783,8924 23794,8924 23805,8924 23828,8924 23840,8924 23851,8924 23862,8924 23874,8924 23896,8924 23908,8924 23919,8924 23931,8924 23942,8924 23965,8924 23976,8924 23987,8924 23999,8924 24010,8924 24033,8924 24044,8924 24056,8924 24067,8924 24090,8924 24101,8924 24112,8924 24124,8924 24135,8924 24158,8924 24169,8924 24181,8924 24192,8924 24203,8924 24226,8924 24238,8924 24249,8924 24260,8924 24272,8924 24294,8924 24306,8924 24317,8924 24328,8924 24340,8924 24363,8924 24374,8924 24385,8924 24397,8924 24419,8924 24431,8924 24442,8924 24454,8924 24465,8924 24488,8924 24499,8924 24510,8924 24522,8924 24533,8924 24556,8924 24567,8924 24579,8924 24590,8924 24601,8924 24624,8924 24636,9084 24647,16411"/>
 <path fill="none" stroke="rgb(112,214,224)" stroke-width="80" stroke-linejoin="round" d="M 3545,16377 L 3556,16217 3567,16174 3579,16092 3590,15515 3602,15573 3613,15556 3624,15537 3636,15524 3647,15513 3658,15500 3670,15493 3681,15455 3693,15453 3704,15447 3715,15445 3727,15442 3738,15440 3749,15435 3772,15430 3783,15427 3795,15425 3806,15414 3829,15394 3840,15365 3852,15337 3863,15313 3874,15290 3886,15227 3897,15227 3909,15227 3920,15227 3931,15227 3943,15227 3965,15227 3977,15227 3988,15227 4000,15227 4011,15227 4034,15227 4045,15227 4056,15227 4068,15384 4079,15384 4102,15314 4113,15124 4125,14921 4136,14710 4147,14301 4159,13348 4170,12527 4181,11897 4193,11188 4204,10503 4216,10469 4227,10436 4238,10402 4250,10350 4261,10318 4272,10284 4284,10256 4295,10225 4307,10191 4318,10157 4329,10120 4341,10081 4352,10042 4363,10011 4375,9982 4386,9933 4398,9899 4409,9863 4420,9829 4432,9795 4443,9725 4454,9597 4466,9470 4477,9348 4488,9168 4500,9038 4511,9027 4523,8988 4534,8978 4557,8978 4568,8978 4579,8970 4591,8970 4602,8970 4625,8970 4636,8970 4648,8970 4659,8970 4670,8970 4693,8970 4705,8970 4716,8970 4727,8970 4750,8970 4761,8970 4773,8970 4784,8970 4796,8970 4818,8970 4830,8970 4841,8970 4852,8970 4864,8970 4886,8970 4898,8970 4909,8970 4921,8970 4932,8970 4955,8970 4966,8970 4977,8970 4989,8970 5000,8970 5023,8970 5034,8970 5046,8970 5057,8970 5080,8970 5091,8970 5102,8970 5114,8970 5125,8970 5148,8970 5159,8970 5171,8970 5182,8970 5193,8970 5216,8968 5228,8968 5239,8968 5250,8968 5262,8968 5284,8968 5296,8968 5307,8968 5319,8968 5341,8968 5353,8968 5364,8968 5375,8968 5387,8968 5410,8968 5421,8968 5432,8968 5444,8968 5455,8968 5478,8968 5489,8968 5500,8968 5512,8968 5523,8968 5546,8968 5557,8968 5569,8968 5580,8968 5591,8968 5614,8968 5626,8968 5637,8968 5648,8968 5671,8968 5682,8968 5694,8968 5705,8968 5716,8968 5739,8968 5751,8968 5762,8968 5773,8968 5785,8968 5807,8968 5819,8968 5830,8968 5842,8968 5853,8968 5876,8968 5887,8968 5898,8968 5910,8968 5921,8968 5944,8968 5955,8968 5967,8968 5978,8968 6001,8968 6012,8968 6024,8968 6035,8968 6046,8968 6069,8968 6080,8968 6092,8968 6103,8968 6114,8968 6137,8968 6149,8968 6160,8968 6171,8968 6183,8968 6205,8968 6217,8968 6228,8968 6240,8968 6262,8968 6274,8968 6285,8968 6296,9641 6308,9641 6331,9641 6342,9641 6353,9641 6365,9641 6376,9641 6399,9641 6410,9641 6421,9641 6433,9641 6444,9641 6467,9641 6478,9641 6490,9641 6501,9595 6512,9354 6524,9125 6535,8901 6547,8664 6558,8562 6569,8549 6581,8536 6592,8526 6603,8518 6615,8505 6626,8492 6638,8479 6649,8466 6660,8456 6672,8445 6683,8435 6694,8422 6706,8411 6717,8401 6728,8390 6740,8380 6751,8367 6763,8357 6774,8344 6797,8320 6808,8307 6819,8294 6831,8281 6842,8263 6854,8250 6865,8213 6876,8166 6888,8125 6899,8073 6910,8031 6922,8002 6933,8002 6945,8002 6956,8002 6967,8002 6990,8002 7001,8002 7013,8002 7024,8002 7035,8002 7058,8002 7070,8002 7081,8002 7092,8002 7104,8002 7126,8002 7138,8002 7149,8002 7161,8002 7172,8002 7195,8002 7206,8002 7217,8002 7229,8002 7252,8002 7263,8002 7274,8002 7286,8002 7297,8002 7320,8002 7331,8002 7343,8002 7354,8002 7365,8002 7388,8002 7399,8002 7411,8002 7422,8002 7433,8002 7456,8002 7468,8002 7479,8002 7490,8002 7513,8002 7524,8002 7536,8002 7547,8002 7559,8002 7581,8002 7593,8002 7604,8002 7615,8002 7627,8002 7649,8002 7661,8002 7672,8002 7684,8002 7695,8002 7718,8002 7729,8002 7740,8002 7752,8002 7763,8002 7786,8002 7797,8002 7809,8002 7820,8002 7843,8002 7854,8002 7866,8002 7877,8002 7888,8002 7911,8002 7922,8002 7934,8002 7945,8002 7956,8002 7979,8002 7991,8002 8002,8002 8013,8002 8025,8002 8047,8002 8059,8002 8070,8002 8082,8002 8093,8002 8116,8002 8127,8002 8138,8002 8150,8002 8173,8002 8184,8002 8195,8002 8207,8002 8218,8002 8241,8002 8252,8002 8263,8002 8275,8002 8286,8002 8309,8002 8320,8002 8332,8002 8343,8002 8354,8002 8377,8002 8389,8002 8400,8002 8411,8002 8434,8002 8445,8002 8457,8002 8468,8002 8480,8002 8502,8002 8514,8002 8525,8002 8536,8002 8548,8002 8571,8512 8582,8163 8593,7910 8605,7600 8616,7423 8627,8457 8639,8457 8650,8457 8661,8457 8673,8457 8684,8457 8707,8457 8718,8455 8730,8452 8741,8442 8752,8431 8764,8418 8775,8408 8787,8392 8798,8382 8809,8371 8821,8361 8832,8348 8843,8337 8855,8324 8866,8314 8878,8304 8889,8290 8900,8275 8912,8238 8923,8192 8934,8192 8946,8165 8957,8108 8968,8072 8980,8030 8991,7999 9003,7999 9014,7999 9037,7999 9048,7999 9059,7999 9071,7999 9094,7999 9105,7999 9116,7999 9128,7999 9139,7999 9162,7999 9173,7999 9184,7999 9196,7999 9207,7999 9230,7999 9241,7999 9253,7999 9264,7999 9275,7999 9298,7999 9310,7999 9321,7999 9332,7999 9355,7999 9366,7999 9378,7999 9389,7999 9400,7999 9423,7999 9435,7999 9446,7999 9457,7999 9469,7999 9491,7999 9503,7999 9514,7999 9526,7999 9537,7999 9560,7999 9571,7999 9582,7999 9594,7999 9605,7999 9628,7999 9639,7999 9651,7999 9662,7999 9685,7999 9696,7999 9707,7999 9719,7999 9730,7999 9753,7999 9764,7999 9776,7999 9787,7999 9798,7999 9821,7999 9833,7999 9844,7999 9855,7999 9867,7999 9889,7999 9901,7999 9912,7999 9923,7999 9935,7999 9958,7999 9969,7999 9980,7999 9992,7999 10014,7999 10026,7999 10037,7999 10049,7999 10060,7999 10083,7999 10094,7999 10105,7999 10117,7999 10128,7999 10151,7999 10162,7999 10174,7999 10185,7999 10196,7999 10219,7999 10230,7999 10242,7999 10253,7999 10276,7999 10287,7999 10299,7999 10310,7999 10321,7999 10344,7999 10356,7999 10367,7999 10378,7999 10390,7999 10412,7999 10424,7999 10435,7999 10446,7999 10458,7999 10481,7999 10492,7999 10503,7999 10515,7999 10526,7999 10549,7999 10560,7999 10572,7999 10583,7999 10606,7999 10617,7999 10628,7999 10640,7999 10651,7999 10674,7999 10685,7999 10697,8447 10708,8184 10719,7934 10731,7715 10742,7582 10753,8643 10765,8643 10776,8643 10788,8641 10799,8633 10810,8622 10822,8609 10833,8596 10844,8583 10856,8573 10867,8562 10879,8549 10890,8539 10901,8526 10913,8510 10924,8500 10935,8487 10947,8477 10958,8466 10969,8456 10981,8443 10992,8432 11004,8409 11015,8380 11026,8375 11038,8338 11049,8305 11060,8268 11072,8232 11083,8195 11095,8172 11106,8172 11117,8172 11140,8172 11151,8172 11163,8172 11174,8172 11197,8172 11208,8172 11220,8172 11231,8172 11242,8172 11265,8172 11276,8172 11288,8172 11299,8172 11311,8172 11333,8172 11345,8172 11356,8172 11367,8172 11379,8172 11402,8172 11413,8172 11424,8172 11436,8172 11447,8172 11470,8172 11481,8172 11492,8172 11504,8172 11527,8172 11538,8172 11549,8172 11561,8172 11572,8172 11595,8172 11606,8172 11618,8172 11629,8172 11640,8172 11663,8172 11674,8172 11686,8172 11697,8172 11709,8172 11731,8172 11743,8172 11754,8172 11765,8172 11788,8172 11799,8172 11811,8172 11822,8172 11834,8172 11856,8172 11868,8172 11879,8172 11890,8172 11902,8172 11925,8172 11936,8172 11947,8172 11959,8172 11970,8172 11993,8172 12004,8172 12015,8172 12027,8172 12038,8172 12061,8172 12072,8172 12084,8172 12095,8172 12118,8172 12129,8172 12141,8172 12152,8172 12163,8172 12186,8172 12197,8172 12209,8172 12220,8172 12231,8172 12254,8172 12266,8172 12277,8172 12288,8172 12300,8172 12322,8172 12334,8172 12345,8172 12357,8172 12368,8172 12391,8172 12402,8172 12413,8172 12425,8172 12448,8172 12459,8172 12470,8172 12482,8172 12493,8172 12516,8172 12527,8172 12538,8172 12550,8172 12561,8172 12584,8172 12595,8267 12607,9603 12618,9603 12629,9603 12652,9603 12664,9603 12675,9427 12686,9286 12698,9255 12709,9244 12720,9236 12732,9229 12743,9221 12755,9210 12766,9205 12777,9197 12789,9189 12800,9184 12811,9176 12823,9169 12834,9161 12846,9153 12857,9145 12868,9127 12880,9111 12891,9098 12902,9064 12914,9038 12925,9023 12936,9023 12948,9023 12959,9023 12982,9023 12993,9023 13005,9023 13016,9023 13039,9023 13050,9023 13062,9023 13073,9023 13084,9023 13107,9023 13118,9023 13130,9023 13141,9023 13153,9023 13175,9023 13187,9023 13198,9023 13209,9023 13221,9023 13244,9023 13255,9023 13266,9023 13278,9023 13289,9023 13312,9023 13323,9023 13334,9023 13346,9023 13369,9023 13380,9023 13391,9023 13403,9023 13414,9023 13437,9023 13448,9023 13460,9023 13471,9023 13482,9023 13505,9023 13516,9023 13528,9023 13539,9023 13550,9023 13573,9023 13585,9023 13596,9023 13607,9023 13630,9023 13641,9023 13653,9023 13664,9023 13676,9023 13698,9023 13710,9023 13721,9023 13732,9023 13744,9023 13767,9023 13778,9023 13789,9023 13801,9023 13812,9023 13835,9023 13846,9023 13857,9023 13869,9023 13880,9023 13903,9023 13914,9023 13926,9023 13937,9023 13960,9023 13971,9023 13983,9023 13994,9023 14005,9023 14028,9023 14039,9315 14051,9615 14062,9615 14074,9251 14085,9168 14096,9155 14108,9144 14119,9131 14130,9116 14142,9097 14153,9087 14164,9074 14176,9064 14187,9053 14199,9043 14210,9006 14221,8975 14233,8967 14244,8933 14255,8910 14267,8910 14290,8910 14301,8910 14312,8910 14324,8910 14335,8910 14358,8910 14369,8910 14381,8910 14392,8910 14403,8910 14426,8910 14437,8910 14449,8910 14460,8910 14472,8910 14494,8910 14506,8910 14517,8910 14528,8910 14551,8910 14562,8910 14574,8910 14585,8910 14597,8910 14619,8910 14631,8910 14642,8910 14653,8910 14665,8910 14688,8910 14699,8910 14710,8910 14722,8910 14733,8910 14756,8910 14767,8910 14778,8910 14790,8910 14801,8910 14824,8910 14835,8910 14847,8910 14858,8910 14881,8910 14892,8910 14904,8910 14915,8910 14926,8910 14949,8910 14960,8910 14972,9429 14983,9587 14995,9587 15017,9587 15029,9548 15040,9533 15051,9520 15063,9507 15074,9494 15086,9482 15097,9443 15108,9427 15120,9427 15131,9427 15154,9427 15165,9427 15177,9427 15188,9427 15211,9427 15222,9427 15233,9427 15245,9427 15256,9427 15279,9427 15290,9427 15302,9427 15313,9427 15324,9427 15347,9427 15358,9427 15370,9427 15381,9427 15393,9427 15415,9427 15427,9427 15438,9427 15449,9427 15461,9427 15483,9427 15495,9427 15506,9427 15518,9427 15540,9427 15552,9427 15563,9427 15574,9427 15586,9427 15609,9427 15620,9427 15631,9427 15643,9427 15654,9427 15677,9427 15688,9427 15700,9427 15711,9496 15722,9585 15745,9585 15756,9585 15768,9585 15779,9585 15802,9585 15813,9585 15825,9585 15836,9585 15847,9585 15870,9585 15881,9585 15893,9585 15904,9567 15916,9543 15927,9507 15938,9471 15950,9471 15961,9471 15972,9471 15984,9471 16007,9471 16018,9471 16029,9471 16041,9471 16052,9471 16075,9471 16086,9471 16098,9471 16109,9471 16132,9471 16143,9471 16154,9471 16166,9596 16177,9596 16189,9559 16200,9541 16211,9523 16223,9505 16234,9456 16245,9444 16268,9444 16279,9444 16291,9444 16302,9444 16314,9444 16336,9444 16348,9444 16359,9444 16370,9444 16382,9444 16405,9444 16416,9444 16427,9444 16439,9444 16461,9444 16473,9574 16484,9574 16496,9574 16507,9574 16530,9442 16541,9281 16552,9101 16564,9047 16575,9028 16586,9010 16598,8992 16609,8974 16621,8958 16632,8945 16643,8929 16655,8906 16666,8888 16677,8869 16689,8849 16700,8830 16712,8812 16723,8789 16734,8763 16746,8713 16757,8692 16768,8669 16780,8612 16791,8549 16803,8494 16814,8494 16825,8494 16837,8494 16859,8494 16871,8494 16882,8494 16892,8494 16904,8494 16927,8494 16938,8494 16949,8494 16961,8494 16972,8494 16995,8494 17006,8494 17018,8494 17029,8494 17052,8494 17063,8494 17074,8494 17086,8494 17097,8494 17120,8494 17131,8494 17143,8494 17154,8494 17165,8494 17188,8494 17199,8494 17211,8494 17222,8494 17234,8494 17256,8494 17268,8494 17279,8494 17290,8494 17302,8494 17325,8494 17336,8494 17347,8494 17359,8494 17381,8494 17393,8494 17404,8494 17416,8494 17427,8494 17450,8494 17461,8494 17472,8494 17484,8494 17495,8494 17518,8494 17529,8494 17541,8494 17552,8494 17563,8494 17586,8494 17597,8494 17609,8494 17620,8494 17643,8494 17654,8494 17666,8494 17677,8494 17688,8494 17711,8494 17722,8494 17734,8494 17745,8494 17757,8494 17779,8494 17791,8494 17802,8494 17813,8494 17825,8494 17848,8966 17859,8742 17870,9218 17882,9218 17893,9218 17916,9218 17927,9218 17939,9218 17950,9215 17961,9192 17973,9142 17984,9093 17995,9093 18007,9093 18018,9093 18041,9093 18052,9093 18064,9093 18075,9093 18086,9093 18109,9093 18120,9093 18132,9093 18143,9093 18155,9093 18177,9093 18189,9093 18200,9093 18211,9093 18223,9093 18245,9093 18257,9093 18268,9093 18280,9093 18302,9093 18314,9093 18325,9093 18336,9093 18348,9093 18371,9093 18382,9093 18393,9093 18405,9093 18416,9093 18439,9093 18450,9093 18462,9093 18473,9093 18484,9093 18496,9216 18507,9548 18518,9548 18530,9548 18541,9548 18564,9548 18575,9548 18587,9548 18598,9548 18609,9548 18632,9383 18643,9208 18655,8987 18666,8773 18678,8713 18689,8695 18700,8677 18712,8666 18723,8653 18734,8640 18746,8635 18757,8622 18768,8609 18780,8596 18791,8583 18803,8573 18814,8560 18825,8547 18837,8533 18848,8518 18859,8505 18871,8494 18882,8479 18894,8466 18905,8453 18916,8440 18928,8390 18939,8377 18950,8364 18962,8325 18973,8286 18984,8247 18996,8195 19007,8156 19030,8156 19041,8156 19053,8156 19064,8156 19075,8156 19098,8156 19110,8156 19121,8156 19132,8156 19144,8156 19166,8156 19178,8156 19189,8156 19201,8156 19223,8156 19235,8156 19246,8156 19257,8156 19269,8156 19291,8156 19303,8156 19314,8156 19326,8156 19337,8156 19360,8156 19371,8156 19382,8156 19394,8156 19405,8156 19428,8156 19439,8156 19451,8156 19462,8156 19485,8156 19496,8156 19507,8156 19519,8156 19530,8156 19553,8156 19564,8156 19576,8156 19587,8156 19598,8156 19621,8156 19633,8156 19644,8156 19655,8156 19667,8156 19689,8156 19701,8156 19712,8156 19724,8156 19735,8156 19758,8156 19769,8156 19780,8156 19792,8156 19815,8156 19826,8156 19837,8156 19849,8156 19860,8156 19883,8156 19894,8156 19905,8156 19917,8156 19928,8156 19951,8156 19962,8156 19974,8156 19985,8156 19996,8156 20019,8156 20031,8156 20042,8156 20053,8156 20065,8156 20087,8156 20099,8156 20110,8156 20121,8156 20144,8156 20156,8156 20167,8156 20178,8156 20190,8156 20212,8156 20224,8156 20235,8156 20247,8156 20258,8156 20281,8156 20292,8156 20303,8156 20315,8156 20326,8156 20349,8156 20360,8156 20372,8156 20383,8156 20406,8156 20417,8156 20428,8156 20440,8156 20451,8156 20474,8156 20485,8156 20497,8156 20508,8156 20519,8156 20542,8286 20554,8583 20565,8395 20576,9153 20588,9153 20610,9153 20622,9153 20633,9153 20645,9153 20656,9153 20679,9148 20690,9119 20701,9119 20713,9119 20736,9119 20747,9119 20758,9119 20770,9119 20781,9119 20804,9119 20815,9119 20826,9119 20838,9119 20849,9119 20872,9119 20883,9119 20895,9119 20906,9119 20917,9119 20940,9119 20952,9119 20963,9119 20974,9119 20986,9119 21008,9119 21020,9119 21031,9119 21043,9119 21065,9119 21077,9119 21088,9119 21099,9119 21111,9119 21133,9119 21145,9119 21156,9119 21168,9119 21179,9119 21202,9119 21213,9119 21224,9119 21236,9119 21247,9119 21270,9119 21281,9153 21293,9523 21304,9523 21327,9523 21338,9311 21349,9167 21361,9152 21372,9136 21384,9120 21395,9105 21406,9092 21418,9071 21429,9058 21440,9042 21452,9021 21463,8995 21475,8951 21486,8891 21497,8850 21509,8850 21531,8850 21543,8850 21554,8850 21566,8850 21577,8850 21600,8850 21611,8850 21622,8850 21634,8850 21656,8850 21668,8850 21679,8850 21691,8850 21702,8850 21725,8850 21736,8850 21747,8850 21759,8850 21770,8850 21793,8850 21804,8850 21816,8850 21827,8850 21838,8850 21861,8850 21873,8850 21884,8850 21895,8850 21907,8850 21929,8850 21941,8850 21952,8850 21963,8850 21986,8850 21998,8850 22009,8850 22020,8850 22032,8850 22054,8850 22066,8850 22077,8850 22089,8850 22100,8850 22123,8850 22134,8850 22145,8850 22157,8850 22168,8850 22191,8850 22202,8850 22214,8850 22225,8850 22248,8850 22259,8850 22270,9519 22282,9519 22293,9519 22316,9532 22327,9532 22339,9400 22350,9304 22361,9291 22373,9280 22384,9270 22396,9257 22407,9246 22418,9233 22430,9223 22441,9210 22452,9199 22464,9181 22475,9163 22487,9155 22498,9150 22509,9137 22521,9124 22532,9108 22543,9056 22555,9007 22566,8955 22577,8926 22589,8926 22600,8926 22612,8926 22623,8926 22646,8926 22657,8926 22668,8926 22680,8926 22691,8926 22714,8926 22725,8926 22737,8926 22748,8926 22759,8926 22782,8926 22794,8926 22805,8926 22816,8926 22828,8926 22850,8926 22862,8926 22873,8926 22884,8926 22907,8926 22919,8926 22930,8926 22941,8926 22953,8926 22975,8926 22987,8926 22998,8926 23010,8926 23021,8926 23044,8926 23055,8926 23066,8926 23078,8926 23089,8926 23112,8926 23123,8926 23135,8926 23146,8926 23169,8926 23180,8926 23192,8926 23203,8926 23214,8926 23237,8926 23248,8926 23260,8926 23271,8926 23282,8926 23305,8926 23317,8926 23328,8926 23339,8926 23351,8926 23373,8926 23385,8926 23396,8926 23408,8926 23419,8926 23442,8926 23453,8926 23464,8926 23476,8926 23498,8926 23510,8926 23521,8926 23533,8926 23544,8926 23567,8926 23578,9060 23589,16411"/>
 <path fill="none" stroke="rgb(0,192,29)" stroke-width="80" stroke-linejoin="round" d="M 3545,16378 L 3556,16249 3567,16189 3579,16145 3590,16083 3602,15481 3613,15573 3624,15556 3636,15534 3647,15522 3658,15513 3670,15503 3681,15493 3693,15459 3704,15453 3715,15450 3727,15448 3738,15445 3749,15443 3761,15438 3772,15435 3783,15433 3795,15430 3806,15428 3829,15415 3840,15402 3852,15395 3863,15366 3874,15366 3886,15353 3897,15350 3909,15350 3920,15350 3931,15350 3943,15350 3965,15350 3977,15385 3988,15351 4000,15346 4011,15346 4034,15346 4045,15346 4056,15346 4068,15381 4079,15381 4102,15386 4113,15386 4125,15386 4136,15222 4147,15021 4159,14823 4170,14628 4181,14003 4193,13047 4204,12206 4216,12181 4227,12147 4238,12118 4250,12087 4261,12050 4272,12014 4284,11977 4295,11936 4307,11894 4318,11826 4329,11683 4341,11574 4352,11548 4363,11509 4375,11501 4386,11490 4398,11490 4420,11490 4432,11490 4443,11490 4454,11490 4466,11490 4488,11490 4500,11490 4511,11490 4523,11490 4534,11490 4557,11490 4568,11490 4579,11490 4591,11490 4602,11490 4625,11488 4636,11488 4648,11488 4659,11488 4670,11488 4693,11488 4705,11488 4716,11488 4727,11488 4750,11488 4761,11488 4773,11488 4784,11488 4796,11488 4818,11488 4830,11488 4841,11488 4852,11488 4864,11488 4886,11488 4898,11488 4909,11488 4921,11488 4932,11488 4955,11488 4966,11488 4977,11488 4989,11488 5000,11488 5023,11488 5034,11488 5046,11488 5057,11488 5080,11488 5091,11488 5102,11488 5114,11488 5125,11488 5148,11488 5159,11488 5171,11488 5182,11488 5193,11488 5216,11488 5228,11351 5239,11005 5250,11005 5262,11005 5284,11005 5296,11005 5307,11005 5319,11005 5341,11005 5353,11005 5364,11005 5375,11005 5387,11005 5410,11005 5421,11005 5432,11005 5444,11005 5455,11005 5478,11005 5489,11005 5500,11005 5512,11005 5523,11005 5546,11005 5557,11005 5569,11005 5580,11005 5591,11005 5614,11005 5626,11005 5637,11005 5648,11005 5671,11005 5682,11005 5694,11005 5705,11005 5716,11005 5739,11005 5751,11005 5762,11005 5773,11005 5785,11005 5807,11005 5819,11005 5830,11005 5842,11005 5853,11005 5876,11005 5887,11005 5898,11005 5910,11005 5921,11005 5944,11005 5955,11005 5967,11005 5978,11005 6001,11005 6012,11005 6024,11005 6035,11005 6046,11005 6069,11005 6080,11005 6092,11005 6103,11005 6114,11005 6126,11281 6137,11281 6149,11281 6160,11281 6171,11281 6183,11281 6205,11281 6217,11281 6228,11281 6240,11281 6262,11281 6274,11281 6285,11281 6296,11281 6308,11281 6331,11293 6342,11293 6353,11293 6365,11293 6376,11293 6399,11293 6410,11293 6421,11293 6433,11293 6444,11293 6467,11293 6478,11293 6490,11293 6501,11293 6512,11293 6535,11293 6547,11293 6558,11293 6569,11262 6592,11239 6603,11208 6615,11208 6626,11208 6638,11208 6660,11208 6672,11208 6683,11208 6694,11208 6706,11208 6728,11208 6740,11208 6751,11208 6763,11208 6774,11229 6785,11154 6797,11154 6808,11154 6819,11154 6831,11154 6842,11154 6865,11154 6876,11154 6888,11154 6899,11154 6922,11154 6933,11154 6945,11154 6956,11154 6967,11154 6990,11235 7001,11240 7013,11217 7024,11209 7035,11209 7058,11209 7070,11209 7081,11209 7092,11209 7104,11209 7126,11209 7138,11209 7149,11209 7161,11209 7172,11209 7183,11245 7195,11167 7206,11167 7217,11167 7229,11167 7252,11167 7263,11167 7274,11167 7286,11167 7297,11167 7320,11167 7331,11167 7343,11167 7354,11167 7365,11167 7388,11167 7399,11222 7411,11222 7422,11204 7433,11204 7456,11204 7468,11204 7479,11204 7490,11204 7513,11204 7524,11204 7536,11204 7547,11204 7559,11204 7581,11204 7593,11218 7604,11154 7615,11154 7627,11154 7649,11154 7661,11154 7672,11154 7684,11154 7695,11154 7718,11154 7729,11154 7740,11154 7752,11154 7763,11154 7786,11154 7797,11154 7809,11217 7820,11217 7843,11204 7854,11204 7866,11204 7877,11204 7888,11204 7911,11204 7922,11204 7934,11204 7945,11204 7956,11204 7979,11204 7991,11204 8002,11204 8013,11151 8025,11156 8047,11156 8059,11156 8070,11156 8082,11156 8093,11156 8116,11156 8127,11156 8138,11156 8150,11156 8173,11156 8184,11156 8195,11156 8207,11156 8218,11200 8241,11200 8252,11200 8263,11200 8275,11200 8286,11200 8309,11200 8320,11200 8332,11200 8343,11200 8354,11200 8377,11200 8389,11200 8400,11200 8411,11200 8423,11151 8434,11151 8445,11151 8457,11151 8468,11151 8480,11151 8502,11151 8514,11151 8525,11151 8536,11151 8548,11151 8571,11151 8582,11151 8593,11151 8605,11151 8616,11151 8639,11190 8650,11190 8661,11190 8673,11190 8684,11190 8707,11190 8718,11190 8730,11190 8741,11190 8764,11190 8775,11190 8787,11190 8798,11190 8809,11190 8832,11190 8843,11149 8855,11149 8866,11149 8878,11149 8900,11149 8912,11149 8923,11149 8934,11149 8946,11149 8968,11149 8980,11149 8991,11149 9003,11149 9014,11149 9037,11149 9048,11149 9059,11182 9071,11202 9094,11202 9105,11202 9116,11202 9128,11202 9139,11202 9162,11202 9173,11202 9184,11202 9196,11202 9207,11202 9230,11202 9241,11202 9253,11202 9264,11147 9275,11147 9298,11147 9310,11147 9321,11147 9332,11147 9355,11147 9366,11147 9378,11147 9389,11147 9400,11147 9423,11147 9435,11147 9446,11147 9457,11147 9469,11175 9491,11175 9503,11177 9514,11177 9526,11177 9537,11177 9560,11177 9571,11177 9582,11177 9594,11177 9605,11177 9628,11177 9639,11177 9651,11177 9662,11164 9673,11148 9685,11146 9696,11146 9707,11146 9719,11146 9730,11146 9753,11146 9764,11146 9776,11146 9787,11146 9798,11146 9821,11146 9833,11146 9844,11146 9855,11146 9867,11165 9889,11165 9901,11165 9912,11165 9923,11165 9935,11165 9958,11165 9969,11165 9980,11165 9992,11165 10014,11165 10026,11165 10037,11165 10049,11165 10060,11165 10071,11149 10083,11149 10094,11149 10105,11149 10117,11149 10128,11149 10151,11149 10162,11149 10174,11149 10185,11149 10196,11149 10219,11149 10230,11149 10242,11149 10253,11149 10276,11162 10287,11162 10299,11162 10310,11162 10321,11162 10344,11162 10356,11162 10367,11162 10378,11162 10390,11162 10412,11162 10424,11162 10435,11162 10446,11162 10458,11162 10481,11147 10492,11147 10503,11147 10515,11147 10526,11147 10549,11147 10560,11147 10572,11147 10583,11147 10606,11147 10617,11147 10628,11147 10640,11147 10651,11147 10674,11147 10685,11147 10697,11147 10708,11160 10719,11160 10742,11160 10753,11160 10765,11160 10776,11160 10788,11160 10810,11160 10822,11160 10833,11160 10844,11160 10867,11160 10879,11160 10890,11160 10901,11160 10913,11147 10935,11147 10947,11147 10958,11147 10969,11147 10981,11147 11004,11147 11015,11147 11026,11147 11038,11147 11049,11147 11072,11147 11083,11147 11095,11147 11106,11147 11117,11152 11140,11152 11151,11152 11163,11152 11174,11152 11197,11152 11208,11152 11220,11152 11231,11152 11242,11152 11265,11152 11276,11152 11288,11152 11299,11152 11311,11152 11333,11147 11345,11147 11356,11147 11367,11147 11379,11147 11402,11147 11413,11147 11424,11147 11436,11147 11447,11147 11470,11147 11481,11147 11492,11147 11504,11147 11527,11149 11538,11149 11549,11149 11561,11152 11572,11152 11595,11152 11606,11152 11618,11152 11629,11152 11640,11152 11663,11152 11674,11152 11686,11152 11697,11152 11709,11152 11731,11152 11743,11147 11754,11147 11765,11147 11788,11147 11799,11147 11811,11147 11822,11147 11834,11147 11856,11147 11868,11147 11879,11147 11890,11147 11902,11147 11925,11147 11936,11149 11947,11149 11959,11149 11970,11149 11993,11149 12004,11149 12015,11149 12027,11149 12038,11149 12061,11149 12072,11149 12084,11149 12095,11149 12118,11149 12129,11149 12141,11149 12152,11149 12163,11149 12186,11149 12197,11149 12209,11149 12220,11149 12231,11149 12254,11149 12266,11149 12277,11149 12288,11149 12300,11149 12322,11149 12334,11149 12345,11147 12357,11147 12368,11147 12391,11147 12402,11147 12413,11147 12425,11147 12448,11147 12459,11147 12470,11147 12482,11147 12493,11147 12516,11147 12527,11147 12538,11147 12550,11218 12561,11253 12584,11253 12595,11253 12607,11250 12618,11245 12629,11235 12652,11211 12664,11211 12675,11211 12686,11211 12709,11211 12720,11211 12732,11211 12743,11211 12755,11211 12777,11211 12789,11211 12800,11211 12811,11211 12823,11211 12846,11211 12857,11211 12868,11211 12880,11211 12891,11211 12914,11211 12925,11236 12936,11155 12948,11155 12959,11155 12982,11155 12993,11155 13005,11155 13016,11155 13039,11155 13050,11155 13062,11155 13073,11155 13084,11155 13107,11155 13118,11155 13130,11155 13141,11155 13153,11155 13175,11155 13187,11155 13198,11155 13209,11155 13221,11155 13244,11155 13255,11243 13266,11243 13278,11240 13289,11212 13312,11212 13323,11212 13334,11212 13346,11212 13369,11212 13380,11212 13391,11212 13403,11212 13414,11212 13437,11212 13448,11212 13460,11212 13471,11212 13482,11212 13505,11212 13516,11212 13528,11212 13539,11212 13550,11203 13562,11159 13573,11159 13585,11159 13596,11159 13607,11159 13630,11159 13641,11159 13653,11159 13664,11159 13676,11159 13698,11159 13710,11159 13721,11159 13732,11159 13744,11159 13767,11159 13778,11159 13789,11159 13801,11159 13812,11159 13835,11159 13846,11159 13857,11159 13869,11159 13880,11159 13892,11245 13903,11245 13914,11245 13926,11245 13937,11245 13948,11268 13960,11268 13971,11250 13983,11240 13994,11227 14005,11201 14028,11201 14039,11201 14051,11201 14062,11201 14074,11201 14096,11201 14108,11201 14119,11201 14130,11201 14142,11201 14164,11141 14176,11141 14187,11141 14199,11141 14210,11141 14233,11141 14244,11141 14255,11141 14267,11141 14290,11141 14301,11141 14312,11141 14324,11141 14335,11141 14358,11141 14369,11225 14381,11225 14392,11225 14403,11199 14426,11199 14437,11199 14449,11199 14460,11199 14472,11199 14494,11199 14506,11199 14517,11199 14528,11199 14551,11199 14562,11143 14574,11143 14585,11143 14597,11143 14619,11143 14631,11143 14642,11143 14653,11143 14665,11143 14688,11143 14699,11143 14710,11143 14722,11143 14733,11143 14756,11143 14767,11143 14778,11220 14790,11220 14801,11220 14824,11220 14835,11220 14847,11220 14858,11220 14881,11220 14892,11220 14904,11235 14915,11235 14926,11235 14949,11235 14960,11235 14972,11235 14983,11235 14995,11235 15017,11235 15029,11235 15040,11235 15051,11235 15063,11235 15086,11235 15097,11235 15108,11235 15120,11235 15131,11235 15154,11235 15165,11235 15177,11235 15188,11235 15211,11235 15222,11235 15233,11235 15245,11235 15256,11235 15279,11243 15290,11243 15302,11243 15313,11243 15324,11243 15347,11243 15358,11243 15370,11243 15381,11243 15393,11243 15415,11243 15427,11243 15438,11243 15449,11243 15461,11243 15483,11243 15495,11243 15506,11243 15518,11243 15540,11243 15552,11243 15563,11243 15574,11243 15586,11243 15609,11248 15620,11248 15631,11248 15643,11248 15654,11248 15665,11253 15677,11253 15688,11253 15700,11253 15711,11253 15722,11253 15745,11253 15756,11253 15768,11253 15779,11253 15802,11253 15813,11253 15825,11253 15836,11253 15847,11253 15870,11253 15881,11253 15893,11253 15904,11253 15916,11253 15938,11253 15950,11253 15961,11253 15972,11253 15984,11253 16007,11253 16018,11253 16029,11253 16041,11253 16052,11253 16075,11253 16086,11253 16098,11253 16109,11253 16132,11253 16143,11253 16154,11253 16166,11253 16177,11253 16200,11253 16211,11253 16223,11253 16234,11253 16245,11253 16268,11237 16279,11237 16291,11237 16302,11237 16314,11237 16336,11237 16348,11237 16359,11237 16370,11237 16382,11237 16405,11240 16416,11240 16427,11243 16439,11243 16461,11243 16473,11243 16484,11243 16496,11243 16507,11243 16530,11243 16541,11243 16552,11243 16564,11243 16575,11243 16598,11243 16609,11243 16621,11248 16632,11248 16643,11248 16666,11248 16677,11248 16689,11248 16700,11248 16723,11248 16734,11248 16746,11245 16757,11245 16768,11245 16791,11245 16803,11245 16814,11245 16825,11245 16837,11245 16859,11245 16871,11245 16882,11245 16892,11245 16904,11245 16927,11245 16938,11245 16949,11245 16961,11245 16972,11245 16995,11245 17006,11245 17018,11245 17029,11245 17052,11245 17063,11245 17074,11245 17086,11245 17097,11245 17120,11245 17131,11245 17143,11245 17154,11245 17165,11245 17188,11245 17199,11245 17211,11245 17222,11245 17234,11245 17256,11245 17268,11245 17279,11245 17290,11245 17302,11245 17325,11245 17336,11245 17347,11245 17359,11245 17381,11245 17393,11245 17404,11245 17416,11245 17427,11245 17450,11245 17461,11245 17472,11245 17484,11245 17495,11245 17518,11245 17529,11245 17541,11245 17552,11245 17563,11245 17586,11245 17597,11245 17609,11245 17620,11245 17643,11245 17654,11245 17666,11245 17677,11245 17688,11245 17711,11245 17722,11245 17734,11245 17745,11245 17757,11245 17779,11245 17791,11245 17802,11245 17813,11245 17825,11245 17848,11245 17859,11245 17870,11245 17882,11245 17893,11245 17916,11245 17927,11245 17939,11245 17950,11245 17973,11245 17984,11245 17995,11245 18007,11245 18018,11245 18041,11245 18052,11245 18064,11245 18075,11245 18086,11245 18109,11245 18120,11245 18132,11245 18143,11245 18155,11245 18177,11245 18189,11245 18200,11245 18211,11245 18223,11245 18245,11245 18257,11245 18268,11245 18280,11245 18302,11245 18314,11245 18325,11245 18336,11245 18348,11245 18371,11245 18382,11245 18393,11245 18405,11245 18416,11245 18427,11251 18439,11251 18450,11251 18462,11251 18473,11251 18484,11251 18507,11251 18518,11251 18530,11251 18541,11251 18564,11251 18575,11243 18587,11217 18598,11217 18609,11217 18632,11217 18643,11217 18655,11217 18666,11217 18678,11217 18700,11217 18712,11217 18723,11217 18734,11217 18746,11171 18768,11171 18780,11171 18791,11171 18803,11171 18814,11171 18837,11171 18848,11171 18859,11171 18871,11171 18894,11171 18905,11171 18916,11171 18928,11225 18939,11225 18950,11215 18962,11215 18973,11215 18984,11215 18996,11215 19007,11215 19030,11213 19041,11213 19053,11213 19064,11213 19075,11213 19098,11213 19110,11194 19121,11176 19132,11176 19144,11176 19166,11176 19178,11176 19189,11176 19201,11176 19223,11176 19235,11176 19246,11176 19257,11176 19269,11176 19291,11176 19303,11213 19314,11213 19326,11213 19337,11213 19360,11213 19371,11213 19382,11213 19394,11213 19405,11213 19428,11213 19439,11213 19451,11213 19462,11213 19485,11176 19496,11176 19507,11176 19519,11174 19530,11174 19553,11174 19564,11174 19576,11174 19587,11174 19598,11174 19621,11174 19633,11174 19644,11174 19655,11174 19667,11174 19678,11200 19689,11200 19701,11200 19712,11200 19724,11200 19735,11200 19758,11200 19769,11200 19780,11200 19792,11200 19815,11200 19826,11200 19837,11200 19849,11200 19860,11200 19871,11174 19883,11174 19894,11174 19905,11174 19917,11174 19928,11174 19951,11174 19962,11174 19974,11174 19985,11174 19996,11174 20019,11174 20031,11174 20042,11174 20053,11190 20065,11190 20087,11190 20099,11190 20110,11190 20121,11190 20144,11190 20156,11190 20167,11190 20178,11190 20190,11190 20212,11190 20224,11190 20235,11182 20247,11177 20258,11177 20281,11177 20292,11177 20303,11177 20315,11177 20326,11177 20349,11177 20360,11177 20372,11177 20383,11177 20406,11177 20417,11177 20428,11177 20440,11187 20451,11187 20474,11190 20485,11190 20497,11190 20508,11190 20519,11190 20542,11190 20554,11190 20565,11190 20576,11190 20588,11190 20610,11190 20622,11190 20633,11192 20645,11177 20656,11177 20679,11177 20690,11177 20701,11177 20713,11177 20736,11177 20747,11177 20758,11177 20770,11177 20781,11177 20804,11177 20815,11177 20826,11180 20838,11180 20849,11180 20872,11180 20883,11180 20895,11180 20906,11180 20917,11180 20940,11180 20952,11180 20963,11180 20974,11180 20986,11180 21008,11180 21020,11180 21031,11180 21043,11180 21065,11180 21077,11180 21088,11180 21099,11180 21111,11180 21133,11180 21145,11180 21156,11180 21168,11180 21179,11180 21190,11251 21202,11251 21213,11251 21224,11235 21236,11222 21247,11222 21270,11222 21281,11222 21293,11222 21304,11222 21327,11222 21338,11222 21349,11222 21361,11192 21372,11181 21395,11181 21406,11181 21418,11181 21429,11181 21440,11181 21463,11181 21475,11181 21486,11181 21497,11181 21509,11181 21531,11181 21543,11223 21554,11223 21566,11223 21577,11223 21600,11223 21611,11223 21622,11223 21634,11223 21656,11223 21668,11223 21679,11223 21691,11223 21702,11184 21725,11184 21736,11184 21747,11184 21759,11184 21770,11184 21793,11184 21804,11184 21816,11184 21827,11184 21838,11184 21861,11184 21873,11213 21884,11213 21895,11213 21907,11213 21929,11213 21941,11213 21952,11213 21963,11213 21986,11213 21998,11213 22009,11213 22020,11213 22032,11213 22054,11207 22066,11207 22077,11207 22089,11207 22100,11207 22123,11207 22134,11207 22145,11207 22157,11207 22168,11243 22191,11243 22202,11243 22214,11243 22225,11243 22248,11243 22259,11243 22270,11243 22282,11243 22293,11243 22316,11243 22327,11243 22339,11243 22350,11243 22361,11243 22384,11243 22396,11243 22407,11243 22418,11243 22430,11243 22452,11243 22464,11243 22475,11243 22487,11243 22498,11243 22521,11243 22532,11243 22543,11243 22555,11243 22577,11243 22589,11243 22600,11243 22612,11243 22623,11243 22646,11243 22657,11243 22668,11243 22680,11243 22691,11243 22714,11243 22725,11243 22737,11243 22748,11243 22759,11243 22782,11243 22794,11243 22805,11243 22816,11243 22828,11243 22850,11243 22862,11243 22873,11243 22884,11243 22907,11243 22919,11243 22930,11243 22941,11243 22953,11243 22975,11243 22987,11243 22998,11243 23010,11243 23021,11243 23044,11243 23055,11243 23066,11243 23078,11243 23089,11243 23112,11243 23123,11243 23135,11243 23146,11243 23169,11243 23180,11243 23192,11243 23203,11243 23214,11243 23237,11243 23248,11243 23260,11243 23271,11243 23282,11243 23305,11243 23317,11243 23328,11243 23339,11243 23351,11243 23373,11243 23385,11243 23396,11243 23408,11243 23419,11243 23430,16411"/>
 <path fill="none" stroke="rgb(253,154,43)" stroke-width="80" stroke-linejoin="round" d="M 3545,16393 L 3556,16222 3567,16168 3579,16077 3590,15435 3602,15572 3613,15552 3624,15535 3636,15525 3647,15517 3658,15504 3670,15494 3681,15459 3693,15454 3704,15451 3715,15448 3727,15446 3738,15443 3749,15438 3772,15433 3783,15431 3795,15428 3806,15426 3818,15415 3829,15403 3840,15395 3852,15395 3863,15395 3874,15395 3897,15392 3909,15392 3920,15392 3931,15392 3943,15392 3965,15392 3977,15392 3988,15392 4000,15392 4011,15392 4034,15392 4045,15392 4056,15392 4068,15392 4079,15392 4102,15392 4113,15392 4125,15392 4136,15392 4159,15249 4170,15106 4181,14921 4193,14728 4204,14543 4216,14538 4227,14536 4238,14523 4250,14481 4261,14470 4272,14470 4295,14468 4307,14468 4318,14468 4329,14468 4341,14468 4363,14468 4375,14468 4386,14468 4398,14465 4420,14465 4432,14465 4443,14465 4454,14463 4466,14463 4488,14463 4500,14463 4511,14447 4523,14447 4534,14447 4545,14444 4557,14444 4568,14444 4579,14439 4591,14439 4602,14431 4625,14431 4636,14431 4648,14431 4659,14431 4670,14431 4693,14431 4705,14431 4716,14431 4727,14431 4750,14431 4761,14431 4773,14431 4784,14431 4796,14431 4818,14431 4830,14431 4841,14431 4852,14431 4864,14431 4886,14431 4898,14431 4909,14431 4921,14431 4932,14431 4955,14431 4966,14431 4977,14431 4989,14431 5000,14431 5023,14431 5034,14431 5046,14431 5057,14431 5080,14431 5091,14431 5102,14431 5114,14431 5125,14431 5148,14431 5159,14431 5171,14431 5182,14431 5193,14431 5216,14431 5228,14431 5239,14431 5250,14431 5262,14431 5284,14431 5296,14431 5307,14431 5319,14431 5341,14431 5353,14431 5364,14431 5375,14431 5387,14431 5410,14431 5421,14431 5432,14431 5444,14431 5455,14431 5478,14431 5489,14431 5500,14431 5512,14431 5523,14431 5546,14431 5557,14431 5569,14431 5580,14431 5591,14431 5614,14431 5626,14431 5637,14431 5648,14431 5671,14431 5682,14431 5694,14431 5705,14431 5716,14431 5739,14431 5751,14431 5762,14431 5773,14431 5785,14431 5807,14431 5819,14431 5830,14431 5842,14431 5853,14431 5876,14431 5887,14431 5898,14431 5910,14431 5921,14431 5944,14431 5955,14431 5967,14431 5978,14431 6001,14431 6012,14431 6024,14431 6035,14431 6046,14431 6069,14431 6080,14431 6092,14431 6103,14431 6114,14431 6137,14431 6149,14431 6160,14431 6171,14431 6183,14431 6205,14431 6217,14431 6228,14431 6240,14431 6262,14431 6274,14431 6285,14431 6296,14431 6308,14431 6331,14431 6342,14431 6353,14431 6365,14431 6376,14431 6399,14431 6410,14431 6421,14431 6433,14431 6444,14431 6467,14431 6478,14431 6490,14431 6501,14431 6512,14431 6535,14431 6547,14431 6558,14431 6569,14431 6592,14431 6603,14431 6615,14431 6626,14431 6638,14431 6660,14431 6672,14431 6683,14431 6694,14431 6706,14431 6728,14431 6740,14431 6751,14431 6763,14431 6774,14431 6797,14431 6808,14431 6819,14431 6831,14431 6842,14431 6865,14431 6876,14431 6888,14431 6899,14431 6922,14431 6933,14431 6945,14431 6956,14431 6967,14431 6990,14431 7001,14431 7013,14431 7024,14431 7035,14431 7058,14431 7070,14431 7081,14431 7092,14431 7104,14431 7126,14431 7138,14431 7149,14431 7161,14431 7172,14431 7195,14431 7206,14431 7217,14431 7229,14431 7252,14431 7263,14431 7274,14431 7286,14431 7297,14431 7320,14431 7331,14431 7343,14431 7354,14431 7365,14431 7388,14431 7399,14431 7411,14431 7422,14431 7433,14431 7456,14431 7468,14431 7479,14431 7490,14431 7513,14431 7524,14431 7536,14431 7547,14431 7559,14431 7581,14431 7593,14431 7604,14431 7615,14431 7627,14431 7649,14431 7661,14431 7672,14431 7684,14431 7695,14431 7718,14431 7729,14431 7740,14431 7752,14431 7763,14431 7786,14431 7797,14431 7809,14431 7820,14431 7843,14431 7854,14431 7866,14431 7877,14431 7888,14431 7911,14431 7922,14431 7934,14431 7945,14431 7956,14431 7979,14431 7991,14431 8002,14431 8013,14431 8025,14431 8047,14431 8059,14431 8070,14431 8082,14431 8093,14431 8116,14431 8127,14431 8138,14431 8150,14431 8173,14431 8184,14431 8195,14431 8207,14431 8218,14431 8241,14431 8252,14431 8263,14431 8275,14431 8286,14431 8309,14431 8320,14431 8332,14431 8343,14431 8354,14431 8377,14431 8389,14431 8400,14431 8411,14431 8434,14431 8445,14431 8457,14431 8468,14431 8480,14431 8502,14431 8514,14431 8525,14431 8536,14431 8548,14431 8571,14431 8582,14431 8593,14431 8605,14431 8616,14431 8639,14431 8650,14431 8661,14431 8673,14431 8684,14431 8707,14431 8718,14431 8730,14431 8741,14431 8764,14431 8775,14431 8787,14431 8798,14431 8809,14431 8832,14431 8843,14431 8855,14431 8866,14431 8878,14431 8900,14431 8912,14431 8923,14431 8934,14431 8946,14431 8968,14431 8980,14431 8991,14431 9003,14431 9014,14431 9037,14431 9048,14431 9059,14431 9071,14431 9094,14431 9105,14431 9116,14431 9128,14431 9139,14431 9162,14431 9173,14431 9184,14431 9196,14431 9207,14431 9230,14431 9241,14431 9253,14431 9264,14431 9275,14431 9298,14431 9310,14431 9321,14431 9332,14431 9355,14431 9366,14431 9378,14431 9389,14431 9400,14431 9423,14431 9435,14431 9446,14431 9457,14431 9469,14431 9491,14431 9503,14431 9514,14431 9526,14431 9537,14431 9560,14431 9571,14431 9582,14431 9594,14431 9605,14431 9628,14431 9639,14431 9651,14431 9662,14431 9685,14431 9696,14431 9707,14431 9719,14431 9730,14431 9753,14431 9764,14431 9776,14431 9787,14431 9798,14431 9821,14431 9833,14431 9844,14431 9855,14431 9867,14431 9889,14431 9901,14431 9912,14431 9923,14431 9935,14431 9958,14431 9969,14431 9980,14431 9992,14431 10014,14431 10026,14431 10037,14431 10049,14431 10060,14431 10083,14431 10094,14431 10105,14431 10117,14431 10128,14431 10151,14431 10162,14431 10174,14431 10185,14431 10196,14431 10219,14431 10230,14431 10242,14431 10253,14431 10276,14431 10287,14431 10299,14431 10310,14431 10321,14431 10344,14431 10356,14431 10367,14431 10378,14431 10390,14431 10412,14431 10424,14431 10435,14431 10446,14431 10458,14431 10481,14431 10492,14431 10503,14431 10515,14431 10526,14431 10549,14431 10560,14431 10572,14431 10583,14431 10606,14431 10617,14431 10628,14431 10640,14431 10651,14431 10674,14431 10685,14431 10697,14431 10708,14431 10719,14431 10742,14431 10753,14431 10765,14431 10776,14431 10788,14431 10810,14431 10822,14431 10833,14431 10844,14431 10867,14431 10879,14431 10890,14431 10901,14431 10913,14431 10935,14431 10947,14431 10958,14431 10969,14431 10981,14431 11004,14431 11015,14431 11026,14431 11038,14431 11049,14431 11072,14431 11083,14431 11095,14431 11106,14431 11117,14431 11140,14431 11151,14431 11163,14431 11174,14431 11197,14431 11208,14431 11220,14431 11231,14431 11242,14431 11265,14431 11276,14431 11288,14431 11299,14431 11311,14431 11333,14431 11345,14431 11356,14431 11367,14431 11379,14431 11402,14431 11413,14431 11424,14431 11436,14431 11447,14431 11470,14431 11481,14431 11492,14431 11504,14431 11527,14431 11538,14431 11549,14431 11561,14431 11572,14431 11595,14431 11606,14431 11618,14431 11629,14431 11640,14431 11663,14431 11674,14431 11686,14431 11697,14431 11709,14431 11731,14431 11743,14431 11754,14431 11765,14431 11788,14431 11799,14431 11811,14431 11822,14431 11834,14431 11856,14431 11868,14431 11879,14431 11890,14431 11902,14431 11925,14431 11936,14431 11947,14431 11959,14431 11970,14431 11993,14431 12004,14431 12015,14431 12027,14431 12038,14431 12061,14431 12072,14431 12084,14431 12095,14431 12118,14431 12129,14431 12141,14431 12152,14431 12163,14431 12186,14431 12197,14431 12209,14431 12220,14431 12231,14431 12254,14431 12266,14431 12277,14431 12288,14431 12300,14431 12322,14431 12334,14431 12345,14431 12357,14431 12368,14431 12391,14431 12402,14431 12413,14431 12425,14431 12448,14431 12459,14431 12470,14431 12482,14431 12493,14431 12516,14431 12527,14431 12538,14431 12550,14431 12561,14431 12584,14431 12595,14431 12607,14431 12618,14431 12629,14431 12652,14431 12664,14431 12675,14431 12686,14431 12709,14431 12720,14431 12732,14431 12743,14431 12755,14431 12777,14431 12789,14431 12800,14431 12811,14431 12823,14431 12846,14431 12857,14431 12868,14431 12880,14431 12891,14431 12914,14431 12925,14431 12936,14431 12948,14431 12959,14431 12982,14431 12993,14431 13005,14431 13016,14431 13039,14431 13050,14431 13062,14431 13073,14431 13084,14431 13107,14431 13118,14431 13130,14431 13141,14431 13153,14431 13175,14431 13187,14431 13198,14431 13209,14431 13221,14431 13244,14431 13255,14431 13266,14431 13278,14431 13289,14431 13312,14431 13323,14431 13334,14431 13346,14431 13369,14431 13380,14431 13391,14431 13403,14431 13414,14431 13437,14431 13448,14431 13460,14431 13471,14431 13482,14431 13505,14431 13516,14431 13528,14431 13539,14431 13550,14431 13573,14431 13585,14431 13596,14431 13607,14431 13630,14431 13641,14431 13653,14431 13664,14431 13676,14431 13698,14431 13710,14431 13721,14431 13732,14431 13744,14431 13767,14431 13778,14431 13789,14431 13801,14431 13812,14431 13835,14431 13846,14431 13857,14431 13869,14431 13880,14431 13903,14431 13914,14431 13926,14431 13937,14431 13960,14431 13971,14431 13983,14431 13994,14431 14005,14431 14028,14431 14039,14431 14051,14431 14062,14431 14074,14431 14096,14431 14108,14431 14119,14431 14130,14431 14142,14431 14164,14431 14176,14431 14187,14431 14199,14431 14210,14431 14233,14431 14244,14431 14255,14431 14267,14431 14290,14431 14301,14431 14312,14431 14324,14431 14335,14431 14358,14431 14369,14431 14381,14431 14392,14431 14403,14431 14426,14431 14437,14431 14449,14431 14460,14431 14472,14431 14494,14431 14506,14431 14517,14431 14528,14431 14551,14431 14562,14431 14574,14431 14585,14431 14597,14431 14619,14431 14631,14431 14642,14431 14653,14431 14665,14431 14688,14431 14699,14431 14710,14431 14722,14431 14733,14431 14756,14431 14767,14431 14778,14431 14790,14431 14801,14431 14824,14431 14835,14431 14847,14431 14858,14431 14881,14431 14892,14431 14904,14431 14915,14431 14926,14431 14949,14431 14960,14431 14972,14431 14983,14431 14995,14431 15017,14431 15029,14431 15040,14431 15051,14431 15063,14431 15086,14431 15097,14431 15108,14431 15120,14431 15131,14431 15154,14431 15165,14431 15177,14431 15188,14431 15211,14431 15222,14431 15233,14431 15245,14431 15256,14431 15279,14431 15290,14431 15302,14431 15313,14431 15324,14431 15347,14431 15358,14431 15370,14431 15381,14431 15393,14431 15415,14431 15427,14431 15438,14431 15449,14431 15461,14431 15483,14431 15495,14431 15506,14431 15518,14431 15540,14431 15552,14431 15563,14431 15574,14431 15586,14431 15609,14431 15620,14431 15631,14431 15643,14431 15654,14431 15677,14431 15688,14431 15700,14431 15711,14431 15722,14431 15745,14431 15756,14431 15768,14431 15779,14431 15802,14431 15813,14431 15825,14431 15836,14431 15847,14431 15870,14431 15881,14431 15893,14431 15904,14431 15916,14431 15938,14431 15950,14431 15961,14431 15972,14431 15984,14431 16007,14431 16018,14431 16029,14431 16041,14431 16052,14431 16075,14431 16086,14431 16098,14431 16109,14431 16132,14431 16143,14431 16154,14431 16166,14431 16177,14431 16200,14431 16211,14431 16223,14431 16234,14431 16245,14431 16268,14431 16279,14431 16291,14431 16302,14431 16314,14431 16336,14431 16348,14431 16359,14431 16370,14431 16382,14431 16405,14431 16416,14431 16427,14431 16439,14431 16461,14431 16473,14431 16484,14431 16496,14431 16507,14431 16530,14431 16541,14431 16552,14431 16564,14431 16575,14431 16598,14431 16609,14431 16621,14431 16632,14431 16643,14431 16666,14431 16677,14431 16689,14431 16700,14431 16723,14431 16734,14431 16746,14431 16757,14431 16768,14431 16791,14431 16803,14431 16814,14431 16825,14431 16837,14431 16859,14431 16871,14431 16882,14431 16892,14431 16904,14431 16927,14431 16938,14431 16949,14431 16961,14431 16972,14431 16995,14431 17006,14431 17018,14431 17029,14431 17052,14431 17063,14431 17074,14431 17086,14431 17097,14431 17120,14431 17131,14431 17143,14431 17154,14431 17165,14431 17188,14431 17199,14431 17211,14431 17222,14431 17234,14431 17256,14431 17268,14431 17279,14431 17290,14431 17302,14431 17325,14431 17336,14431 17347,14431 17359,14431 17381,14431 17393,14431 17404,14431 17416,14431 17427,14431 17450,14431 17461,14431 17472,14431 17484,14431 17495,14431 17518,14431 17529,14431 17541,14431 17552,14431 17563,14431 17586,14431 17597,14431 17609,14431 17620,14431 17643,14431 17654,14431 17666,14431 17677,14431 17688,14431 17711,14431 17722,14431 17734,14431 17745,14431 17757,14431 17779,14431 17791,14431 17802,14431 17813,14431 17825,14431 17848,14431 17859,14431 17870,14431 17882,14431 17893,14431 17916,14431 17927,14431 17939,14431 17950,14431 17973,14431 17984,14431 17995,14431 18007,14431 18018,14431 18041,14431 18052,14431 18064,14431 18075,14431 18086,14431 18109,14431 18120,14431 18132,14431 18143,14431 18155,14431 18177,14431 18189,14431 18200,14431 18211,14431 18223,14431 18245,14431 18257,14431 18268,14431 18280,14431 18302,14431 18314,14431 18325,14431 18336,14431 18348,14431 18371,14431 18382,14431 18393,14431 18405,14431 18416,14431 18439,14431 18450,14431 18462,14431 18473,14431 18484,14431 18507,14431 18518,14431 18530,14431 18541,14431 18564,14431 18575,14431 18587,14431 18598,14431 18609,14431 18632,14431 18643,14431 18655,14431 18666,14431 18678,14431 18700,14431 18712,14431 18723,14431 18734,14431 18746,14431 18768,14431 18780,14431 18791,14431 18803,14431 18814,14431 18837,14431 18848,14431 18859,14431 18871,14431 18894,14431 18905,14431 18916,14431 18928,14431 18939,14431 18962,14431 18973,14431 18984,14431 18996,14431 19007,14431 19030,14431 19041,14431 19053,14431 19064,14431 19075,14431 19098,14431 19110,14431 19121,14431 19132,14431 19144,14431 19166,14431 19178,14431 19189,14431 19201,14431 19223,14431 19235,14431 19246,14431 19257,14431 19269,14431 19291,14431 19303,14431 19314,14431 19326,14431 19337,14431 19360,14431 19371,14431 19382,14431 19394,14431 19405,14431 19428,14431 19439,14431 19451,14431 19462,14431 19485,14431 19496,14431 19507,14431 19519,14431 19530,14431 19553,14431 19564,14431 19576,14431 19587,14431 19598,14431 19621,14431 19633,14431 19644,14431 19655,14431 19667,14431 19689,14431 19701,14431 19712,14431 19724,14431 19735,14431 19758,14431 19769,14431 19780,14431 19792,14431 19815,14431 19826,14431 19837,14431 19849,14431 19860,14431 19883,14431 19894,14431 19905,14431 19917,14431 19928,14431 19951,14431 19962,14431 19974,14431 19985,14431 19996,14431 20019,14431 20031,14431 20042,14431 20053,14431 20065,14431 20087,14431 20099,14431 20110,14431 20121,14431 20144,14431 20156,14431 20167,14431 20178,14431 20190,14431 20212,14431 20224,14431 20235,14431 20247,14431 20258,14431 20281,14431 20292,14431 20303,14431 20315,14431 20326,14431 20349,14431 20360,14431 20372,14431 20383,14431 20406,14431 20417,14431 20428,14431 20440,14431 20451,14431 20474,14431 20485,14431 20497,14431 20508,14431 20519,14431 20542,14431 20554,14431 20565,14431 20576,14431 20588,14431 20610,14431 20622,14431 20633,14431 20645,14431 20656,14431 20679,14431 20690,14431 20701,14431 20713,14431 20736,14431 20747,14431 20758,14431 20770,14431 20781,14431 20804,14431 20815,14431 20826,14431 20838,14431 20849,14431 20872,14431 20883,14431 20895,14431 20906,14431 20917,14431 20940,14431 20952,14431 20963,14431 20974,14431 20986,14431 21008,14431 21020,14431 21031,14431 21043,14431 21065,14431 21077,14431 21088,14431 21099,14431 21111,14431 21133,14431 21145,14431 21156,14431 21168,14431 21179,14431 21202,14431 21213,14431 21224,14431 21236,14431 21247,14431 21270,14431 21281,14431 21293,14431 21304,14431 21327,14431 21338,14431 21349,14431 21361,14431 21372,14431 21395,14431 21406,14431 21418,14431 21429,14431 21440,14431 21463,14431 21475,14431 21486,14431 21497,14431 21509,14431 21531,14431 21543,14431 21554,14431 21566,14431 21577,14431 21600,14431 21611,14431 21622,14431 21634,14431 21656,14431 21668,14431 21679,14431 21691,14431 21702,14431 21725,14431 21736,14431 21747,14431 21759,14431 21770,14431 21793,14431 21804,14431 21816,14431 21827,14431 21838,14431 21861,14431 21873,14431 21884,14431 21895,14431 21907,14431 21929,14431 21941,14431 21952,14431 21963,14431 21986,14431 21998,14431 22009,14431 22020,14431 22032,14431 22054,14431 22066,14431 22077,14431 22089,14431 22100,14431 22123,14431 22134,14431 22145,14431 22157,14431 22168,14431 22191,14431 22202,14431 22214,14431 22225,14431 22248,14431 22259,14431 22270,14431 22282,14431 22293,14431 22316,14431 22327,14431 22339,14431 22350,14431 22361,14431 22384,14431 22396,14431 22407,14431 22418,14431 22430,14431 22452,14431 22464,14431 22475,14431 22487,14431 22498,14431 22521,14431 22532,14431 22543,14431 22555,14431 22577,14431 22589,14431 22600,14431 22612,14431 22623,14431 22646,14431 22657,14431 22668,14431 22680,14431 22691,14431 22714,14431 22725,14431 22737,14431 22748,14431 22759,14431 22782,14431 22794,14431 22805,14431 22816,14431 22828,14431 22850,14431 22862,14431 22873,14431 22884,14431 22907,14431 22919,14431 22930,14431 22941,14431 22953,14431 22975,14431 22987,14431 22998,14431 23010,14431 23021,14431 23044,14431 23055,14431 23066,14431 23078,14431 23089,14431 23112,14431 23123,14431 23135,14431 23146,14431 23169,14431 23180,14431 23192,14431 23203,14431 23214,14431 23237,14431 23248,14431 23260,14431 23271,14431 23282,14431 23305,14431 23317,14431 23328,14431 23339,14431 23351,14431 23373,14431 23385,14431 23396,14431 23408,14431 23419,14431 23442,14431 23453,14431 23464,14431 23476,14431 23498,14431 23510,14431 23521,14431 23533,14431 23544,14431 23567,14431 23578,14431 23589,14431 23601,14431 23612,14431 23635,14431 23646,14431 23658,14431 23669,14431 23680,14431 23703,14431 23715,14431 23726,14431 23737,14431 23749,14431 23771,14431 23783,14431 23794,14431 23805,14431 23828,14431 23840,14431 23851,14431 23862,14431 23874,14431 23896,14431 23908,14431 23919,14431 23931,14431 23942,14431 23965,14431 23976,14431 23987,14431 23999,14431 24010,14431 24033,14431 24044,14431 24056,14431 24067,14431 24090,14431 24101,14431 24112,14431 24124,14431 24135,14431 24158,14431 24169,14431 24181,14431 24192,14431 24203,14431 24226,14431 24238,14431 24249,14431 24260,14431 24272,14431 24294,14431 24306,14431 24317,14431 24328,14431 24340,14431 24363,14431 24374,14431 24385,14431 24397,14431 24419,14431 24431,14431 24442,14431 24454,14431 24465,14431 24488,14431 24499,14431 24510,14431 24522,14431 24533,14431 24556,14431 24567,14431 24579,14431 24590,14431 24601,14431 24624,14431 24636,14431 24647,14431 24658,14431 24670,14431 24692,14431 24704,14431 24715,14431 24726,14431 24749,14431 24761,14431 24772,14431 24783,14431 24795,14431 24817,14431 24829,14431 24840,14431 24852,14431 24863,14431 24886,14431 24897,14431 24908,14431 24920,14431 24931,14431 24954,14431 24965,14431 24977,14431 24988,14431 25011,14431 25022,14431 25033,14431 25045,14431 25056,14431 25079,14431 25090,14431 25102,14431 25113,14431 25124,14431 25147,14431 25159,14431 25170,14431 25181,14431 25193,14431 25215,14431 25227,14431 25238,14431 25250,14431 25261,14431 25284,14431 25295,14431 25306,14431 25318,14431 25340,14431 25352,14431 25363,14431 25375,14431 25386,14431 25409,14431 25420,14431 25431,14431 25443,14431 25454,14431 25477,14431 25488,14431 25500,14431 25511,14431 25522,14431 25545,14431 25556,14431 25568,14431 25579,14431 25591,14431 25613,14431 25625,14431 25636,14431 25647,14431 25670,14431 25682,14431 25693,14431 25704,14431 25716,14431 25738,14431 25750,14431 25761,14431 25773,14431 25784,14431 25807,14431 25818,14431 25829,14431 25841,14431 25852,14431 25860,16411"/>
 <path fill="none" stroke="rgb(255,239,141)" stroke-width="80" stroke-linejoin="round" d="M 3545,16393 L 3556,16217 3567,16176 3579,16100 3590,15435 3602,15581 3613,15559 3624,15540 3636,15525 3647,15516 3658,15504 3670,15494 3681,15459 3693,15453 3704,15448 3715,15445 3727,15443 3738,15440 3749,15438 3772,15430 3783,15427 3795,15425 3806,15417 3818,15407 3829,15397 3840,15395 3852,15395 3863,15395 3874,15395 3897,15395 3909,15392 3920,15392 3931,15392 3943,15392 3965,15392 3977,15392 3988,15392 4000,15392 4011,15392 4034,15392 4045,15392 4056,15392 4068,15392 4079,15392 4102,15392 4113,15392 4125,15392 4136,15392 4159,15392 4170,15392 4181,15392 4193,15392 4204,15392 4227,15392 4238,15392 4250,15392 4261,15392 4272,15392 4295,15392 4307,15392 4318,15392 4329,15392 4341,15392 4363,15392 4375,15392 4386,15392 4398,15392 4420,15392 4432,15392 4443,15392 4454,15392 4466,15392 4488,15392 4500,15392 4511,15392 4523,15392 4534,15392 4557,15392 4568,15392 4579,15392 4591,15392 4602,15392 4625,15392 4636,15392 4648,15392 4659,15392 4670,15392 4693,15392 4705,15392 4716,15392 4727,15392 4750,15392 4761,15392 4773,15392 4784,15392 4796,15392 4818,15392 4830,15392 4841,15392 4852,15392 4864,15392 4886,15392 4898,15392 4909,15392 4921,15392 4932,15392 4955,15392 4966,15392 4977,15392 4989,15392 5000,15392 5023,15392 5034,15392 5046,15392 5057,15392 5080,15392 5091,15392 5102,15392 5114,15392 5125,15392 5148,15392 5159,15392 5171,15392 5182,15392 5193,15392 5216,15392 5228,15392 5239,15392 5250,15392 5262,15392 5284,15392 5296,15392 5307,15392 5319,15392 5341,15392 5353,15392 5364,15392 5375,15392 5387,15392 5410,15392 5421,15392 5432,15392 5444,15392 5455,15392 5478,15392 5489,15392 5500,15392 5512,15392 5523,15392 5546,15392 5557,15392 5569,15392 5580,15392 5591,15392 5614,15392 5626,15392 5637,15392 5648,15392 5671,15392 5682,15392 5694,15392 5705,15392 5716,15392 5739,15392 5751,15392 5762,15392 5773,15392 5785,15392 5807,15392 5819,15392 5830,15392 5842,15392 5853,15392 5876,15392 5887,15392 5898,15392 5910,15392 5921,15392 5944,15392 5955,15392 5967,15392 5978,15392 6001,15392 6012,15392 6024,15392 6035,15392 6046,15392 6069,15392 6080,15392 6092,15392 6103,15392 6114,15392 6137,15392 6149,15392 6160,15392 6171,15392 6183,15392 6205,15392 6217,15392 6228,15392 6240,15392 6262,15392 6274,15392 6285,15392 6296,15392 6308,15392 6331,15392 6342,15392 6353,15392 6365,15392 6376,15392 6399,15392 6410,15392 6421,15392 6433,15392 6444,15392 6467,15392 6478,15392 6490,15392 6501,15392 6512,15392 6535,15392 6547,15392 6558,15392 6569,15392 6592,15392 6603,15392 6615,15392 6626,15392 6638,15392 6660,15392 6672,15392 6683,15392 6694,15392 6706,15392 6728,15392 6740,15392 6751,15392 6763,15392 6774,15392 6797,15392 6808,15392 6819,15392 6831,15392 6842,15392 6865,15392 6876,15392 6888,15392 6899,15392 6922,15392 6933,15392 6945,15392 6956,15392 6967,15392 6990,15392 7001,15392 7013,15392 7024,15392 7035,15392 7058,15392 7070,15392 7081,15392 7092,15392 7104,15392 7126,15392 7138,15392 7149,15392 7161,15392 7172,15392 7195,15392 7206,15392 7217,15392 7229,15392 7252,15392 7263,15392 7274,15392 7286,15392 7297,15392 7320,15392 7331,15392 7343,15392 7354,15392 7365,15392 7388,15392 7399,15392 7411,15392 7422,15392 7433,15392 7456,15392 7468,15392 7479,15392 7490,15392 7513,15392 7524,15392 7536,15392 7547,15392 7559,15392 7581,15392 7593,15392 7604,15392 7615,15392 7627,15392 7649,15392 7661,15392 7672,15392 7684,15392 7695,15392 7718,15392 7729,15392 7740,15392 7752,15392 7763,15392 7786,15392 7797,15392 7809,15392 7820,15392 7843,15392 7854,15392 7866,15392 7877,15392 7888,15392 7911,15392 7922,15392 7934,15392 7945,15392 7956,15392 7979,15392 7991,15392 8002,15392 8013,15392 8025,15392 8047,15392 8059,15392 8070,15392 8082,15392 8093,15392 8116,15392 8127,15392 8138,15392 8150,15392 8173,15392 8184,15392 8195,15392 8207,15392 8218,15392 8241,15392 8252,15392 8263,15392 8275,15392 8286,15392 8309,15392 8320,15392 8332,15392 8343,15392 8354,15392 8377,15392 8389,15392 8400,15392 8411,15392 8434,15392 8445,15392 8457,15392 8468,15392 8480,15392 8502,15392 8514,15392 8525,15392 8536,15392 8548,15392 8571,15392 8582,15392 8593,15392 8605,15392 8616,15392 8639,15392 8650,15392 8661,15392 8673,15392 8684,15392 8707,15392 8718,15392 8730,15392 8741,15392 8764,15392 8775,15392 8787,15392 8798,15392 8809,15392 8832,15392 8843,15392 8855,15392 8866,15392 8878,15392 8900,15392 8912,15392 8923,15392 8934,15392 8946,15392 8968,15392 8980,15392 8991,15392 9003,15392 9014,15392 9037,15392 9048,15392 9059,15392 9071,15392 9094,15392 9105,15392 9116,15392 9128,15392 9139,15392 9162,15392 9173,15392 9184,15392 9196,15392 9207,15392 9230,15392 9241,15392 9253,15392 9264,15392 9275,15392 9298,15392 9310,15392 9321,15392 9332,15392 9355,15392 9366,15392 9378,15392 9389,15392 9400,15392 9423,15392 9435,15392 9446,15392 9457,15392 9469,15392 9491,15392 9503,15392 9514,15392 9526,15392 9537,15392 9560,15220 9571,15028 9582,14858 9594,14679 9605,14574 9628,14572 9639,14569 9651,14569 9662,14569 9685,14567 9696,14567 9707,14567 9719,14567 9730,14567 9753,14567 9764,14567 9776,14567 9787,14567 9798,14567 9821,14567 9833,14564 9844,14564 9855,14564 9867,14564 9889,14564 9901,14564 9912,14564 9923,14564 9935,14564 9958,14561 9969,14561 9980,14561 9992,14561 10014,14561 10026,14561 10037,14561 10049,14561 10060,14561 10083,14561 10094,14561 10105,14561 10117,14561 10128,14561 10151,14561 10162,14559 10174,14559 10185,14559 10196,14559 10219,14559 10230,14559 10242,14559 10253,14559 10276,14559 10287,14559 10299,14559 10310,14559 10321,14556 10344,14556 10356,14556 10367,14556 10378,14556 10390,14556 10412,14556 10424,14556 10435,14556 10446,14556 10458,14556 10481,14556 10492,14556 10503,14556 10515,14554 10526,14554 10549,14554 10560,14554 10572,14554 10583,14554 10606,14554 10617,14554 10628,14554 10640,14554 10651,14554 10674,14551 10685,14551 10697,14551 10708,14551 10719,14551 10742,14551 10753,14551 10765,14551 10776,14551 10788,14551 10810,14551 10822,14551 10833,14551 10844,14551 10867,14548 10879,14548 10890,14548 10901,14548 10913,14548 10935,14548 10947,14548 10958,14548 10969,14548 10981,14548 11004,14546 11015,14546 11026,14546 11038,14546 11049,14546 11072,14546 11083,14546 11095,14546 11106,14546 11117,14546 11140,14546 11151,14546 11163,14546 11174,14546 11197,14543 11208,14543 11220,14543 11231,14543 11242,14543 11265,14543 11276,14543 11288,14543 11299,14543 11311,14543 11333,14543 11345,14543 11356,14543 11367,14541 11379,14541 11402,14541 11413,14541 11424,14541 11436,14541 11447,14541 11470,14541 11481,14541 11492,14541 11504,14541 11527,14541 11538,14541 11549,14538 11561,14538 11572,14538 11595,14538 11606,14538 11618,14538 11629,14538 11640,14538 11663,14538 11674,14538 11686,14538 11697,14538 11709,14538 11731,14538 11743,14538 11754,14535 11765,14535 11788,14535 11799,14535 11811,14535 11822,14535 11834,14535 11856,14535 11868,14535 11879,14535 11890,14535 11902,14535 11925,14533 11936,14533 11947,14533 11959,14533 11970,14533 11993,14533 12004,14533 12015,14533 12027,14533 12038,14533 12061,14533 12072,14533 12084,14533 12095,14530 12118,14530 12129,14530 12141,14530 12152,14530 12163,14530 12186,14530 12197,14530 12209,14530 12220,14530 12231,14530 12254,14530 12266,14530 12277,14528 12288,14528 12300,14528 12322,14528 12334,14528 12345,14528 12357,14528 12368,14528 12391,14528 12402,14528 12413,14528 12425,14528 12448,14525 12459,14525 12470,14525 12482,14525 12493,14525 12516,14525 12527,14525 12538,14525 12550,14525 12561,14525 12584,14525 12595,14522 12607,14522 12618,14522 12629,14522 12652,14522 12664,14522 12675,14522 12686,14522 12709,14522 12720,14522 12732,14522 12743,14522 12755,14522 12777,14522 12789,14522 12800,14522 12811,14522 12823,14522 12846,14522 12857,14522 12868,14522 12880,14522 12891,14522 12914,14522 12925,14522 12936,14522 12948,14522 12959,14522 12982,14522 12993,14522 13005,14522 13016,14522 13039,14522 13050,14522 13062,14522 13073,14522 13084,14522 13107,14522 13118,14522 13130,14522 13141,14522 13153,14522 13175,14522 13187,14522 13198,14522 13209,14522 13221,14522 13244,14522 13255,14522 13266,14522 13278,14522 13289,14522 13312,14522 13323,14522 13334,14522 13346,14522 13369,14522 13380,14522 13391,14522 13403,14522 13414,14522 13437,14522 13448,14522 13460,14522 13471,14522 13482,14522 13505,14522 13516,14522 13528,14522 13539,14522 13550,14522 13573,14522 13585,14522 13596,14522 13607,14522 13630,14522 13641,14522 13653,14522 13664,14522 13676,14522 13698,14522 13710,14522 13721,14522 13732,14522 13744,14522 13767,14522 13778,14522 13789,14522 13801,14522 13812,14522 13835,14522 13846,14522 13857,14522 13869,14522 13880,14522 13903,14522 13914,14522 13926,14522 13937,14522 13960,14522 13971,14522 13983,14522 13994,14522 14005,14522 14028,14522 14039,14522 14051,14522 14062,14522 14074,14522 14096,14522 14108,14522 14119,14522 14130,14522 14142,14522 14164,14522 14176,14522 14187,14522 14199,14522 14210,14522 14233,14522 14244,14522 14255,14522 14267,14522 14290,14522 14301,14522 14312,14522 14324,14522 14335,14522 14358,14522 14369,14522 14381,14522 14392,14522 14403,14522 14426,14522 14437,14522 14449,14522 14460,14522 14472,14522 14494,14522 14506,14522 14517,14522 14528,14522 14551,14522 14562,14522 14574,14522 14585,14522 14597,14522 14619,14522 14631,14522 14642,14522 14653,14522 14665,14522 14688,14522 14699,14522 14710,14522 14722,14522 14733,14522 14756,14522 14767,14522 14778,14522 14790,14522 14801,14522 14824,14522 14835,14522 14847,14522 14858,14522 14881,14522 14892,14522 14904,14522 14915,14522 14926,14522 14949,14522 14960,14522 14972,14522 14983,14522 14995,14522 15017,14522 15029,14522 15040,14522 15051,14522 15063,14522 15086,14522 15097,14522 15108,14522 15120,14522 15131,14522 15154,14522 15165,14522 15177,14522 15188,14522 15211,14522 15222,14522 15233,14522 15245,14522 15256,14522 15279,14522 15290,14522 15302,14522 15313,14522 15324,14522 15347,14522 15358,14522 15370,14522 15381,14522 15393,14522 15415,14522 15427,14522 15438,14522 15449,14522 15461,14522 15483,14522 15495,14522 15506,14522 15518,14522 15540,14522 15552,14522 15563,14522 15574,14522 15586,14522 15609,14522 15620,14522 15631,14522 15643,14522 15654,14522 15677,14522 15688,14522 15700,14522 15711,14522 15722,14522 15745,14522 15756,14522 15768,14522 15779,14522 15802,14522 15813,14522 15825,14522 15836,14522 15847,14522 15870,14522 15881,14522 15893,14522 15904,14522 15916,14522 15938,14522 15950,14522 15961,14522 15972,14522 15984,14522 16007,14522 16018,14522 16029,14522 16041,14522 16052,14522 16075,14522 16086,14522 16098,14522 16109,14522 16132,14522 16143,14522 16154,14522 16166,14522 16177,14522 16200,14522 16211,14522 16223,14522 16234,14522 16245,14522 16268,14522 16279,14522 16291,14522 16302,14522 16314,14522 16336,14522 16348,14522 16359,14522 16370,14522 16382,14522 16405,14522 16416,14522 16427,14522 16439,14522 16461,14522 16473,14522 16484,14522 16496,14522 16507,14522 16530,14522 16541,14522 16552,14522 16564,14522 16575,14522 16598,14522 16609,14522 16621,14522 16632,14522 16643,14522 16666,14522 16677,14522 16689,14522 16700,14522 16723,14522 16734,14522 16746,14522 16757,14522 16768,14522 16791,14522 16803,14522 16814,14522 16825,14522 16837,14522 16859,14522 16871,14522 16882,14522 16892,14522 16904,14522 16927,14522 16938,14522 16949,14522 16961,14522 16972,14522 16995,14522 17006,14522 17018,14522 17029,14522 17052,14522 17063,14522 17074,14522 17086,14522 17097,14522 17120,14522 17131,14522 17143,14522 17154,14522 17165,14522 17188,14522 17199,14522 17211,14522 17222,14522 17234,14522 17256,14522 17268,14522 17279,14522 17290,14522 17302,14522 17325,14522 17336,14522 17347,14522 17359,14522 17381,14522 17393,14522 17404,14522 17416,14522 17427,14522 17450,14522 17461,14522 17472,14522 17484,14522 17495,14522 17518,14522 17529,14522 17541,14522 17552,14522 17563,14522 17586,14522 17597,14522 17609,14522 17620,14522 17643,14522 17654,14522 17666,14522 17677,14522 17688,14522 17711,14522 17722,14522 17734,14522 17745,14522 17757,14522 17779,14522 17791,14522 17802,14522 17813,14522 17825,14522 17848,14522 17859,14522 17870,14522 17882,14522 17893,14522 17916,14522 17927,14522 17939,14522 17950,14522 17973,14522 17984,14522 17995,14522 18007,14522 18018,14522 18041,14522 18052,14522 18064,14522 18075,14522 18086,14522 18109,14522 18120,14522 18132,14522 18143,14522 18155,14522 18177,14522 18189,14522 18200,14522 18211,14522 18223,14522 18245,14522 18257,14522 18268,14522 18280,14522 18302,14522 18314,14522 18325,14522 18336,14522 18348,14522 18371,14522 18382,14522 18393,14522 18405,14522 18416,14522 18439,14522 18450,14522 18462,14522 18473,14522 18484,14522 18507,14522 18518,14522 18530,14522 18541,14522 18564,14522 18575,14522 18587,14522 18598,14522 18609,14522 18632,14522 18643,14522 18655,14522 18666,14522 18678,14522 18700,14522 18712,14522 18723,14522 18734,14522 18746,14522 18768,14522 18780,14522 18791,14522 18803,14522 18814,14522 18837,14522 18848,14522 18859,14522 18871,14522 18894,14522 18905,14522 18916,14522 18928,14522 18939,14522 18962,14522 18973,14522 18984,14522 18996,14522 19007,14522 19030,14522 19041,14522 19053,14522 19064,14522 19075,14522 19098,14522 19110,14522 19121,14522 19132,14522 19144,14522 19166,14522 19178,14522 19189,14522 19201,14522 19223,14522 19235,14522 19246,14522 19257,14522 19269,14522 19291,14522 19303,14522 19314,14522 19326,14522 19337,14522 19360,14522 19371,14522 19382,14522 19394,14522 19405,14522 19428,14522 19439,14522 19451,14522 19462,14522 19485,14522 19496,14522 19507,14522 19519,14522 19530,14522 19553,14522 19564,14522 19576,14522 19587,14522 19598,14522 19621,14522 19633,14522 19644,14522 19655,14522 19667,14522 19689,14522 19701,14522 19712,14522 19724,14522 19735,14522 19758,14522 19769,14522 19780,14522 19792,14522 19815,14522 19826,14522 19837,14522 19849,14522 19860,14522 19883,14522 19894,14522 19905,14522 19917,14522 19928,14522 19951,14522 19962,14522 19974,14522 19985,14522 19996,14522 20019,14522 20031,14522 20042,14522 20053,14522 20065,14522 20087,14522 20099,14522 20110,14522 20121,14522 20144,14522 20156,14522 20167,14522 20178,14522 20190,14522 20212,14522 20224,14522 20235,14522 20247,14522 20258,14522 20281,14522 20292,14522 20303,14522 20315,14522 20326,14522 20349,14522 20360,14522 20372,14522 20383,14522 20406,14522 20417,14522 20428,14522 20440,14522 20451,14522 20474,14522 20485,14522 20497,14522 20508,14522 20519,14522 20542,14522 20554,14522 20565,14522 20576,14522 20588,14522 20610,14522 20622,14522 20633,14522 20645,14522 20656,14522 20679,14522 20690,14522 20701,14522 20713,14522 20736,14522 20747,14522 20758,14522 20770,14522 20781,14522 20804,14522 20815,14522 20826,14522 20838,14522 20849,14522 20872,14522 20883,14522 20895,14522 20906,14522 20917,14522 20940,14522 20952,14522 20963,14522 20974,14522 20986,14522 21008,14522 21020,14522 21031,14522 21043,14522 21065,14522 21077,14522 21088,14522 21099,14522 21111,14522 21133,14522 21145,14522 21156,14522 21168,14522 21179,14522 21202,14522 21213,14522 21224,14522 21236,14522 21247,14522 21270,14522 21281,14522 21293,14522 21304,14510 21327,14507 21338,14507 21349,14507 21361,14507 21372,14507 21395,14507 21406,14507 21418,14507 21429,14507 21440,14507 21463,14507 21475,14507 21486,14507 21497,14507 21509,14507 21531,14507 21543,14507 21554,14507 21566,14507 21577,14507 21600,14507 21611,14507 21622,14507 21634,14507 21656,14507 21668,14507 21679,14507 21691,14507 21702,14507 21725,14507 21736,14507 21747,14507 21759,14507 21770,14507 21793,14507 21804,14507 21816,14507 21827,14507 21838,14507 21861,14507 21873,14507 21884,14507 21895,14507 21907,14507 21929,14507 21941,14507 21952,14507 21963,14507 21986,14507 21998,14507 22009,14507 22020,14507 22032,14507 22054,14507 22066,14507 22077,14507 22089,14507 22100,14507 22123,14507 22134,14504 22145,14504 22157,14504 22168,14504 22191,14504 22202,14504 22214,14504 22225,14504 22248,14504 22259,14504 22270,14504 22282,14504 22293,14504 22316,14504 22327,14504 22339,14504 22350,14504 22361,14504 22384,14504 22396,14504 22407,14504 22418,14504 22430,14504 22452,14504 22464,14504 22475,14504 22487,14504 22498,14504 22521,14504 22532,14504 22543,14504 22555,14504 22577,14504 22589,14504 22600,14504 22612,14504 22623,14504 22646,14504 22657,14504 22668,14504 22680,14504 22691,14504 22714,14504 22725,14504 22737,14504 22748,14504 22759,14504 22782,14504 22794,14504 22805,14504 22816,14504 22828,14504 22850,14504 22862,14504 22873,14504 22884,14504 22907,14504 22919,14504 22930,14504 22941,14504 22953,14504 22975,14504 22987,14504 22998,14504 23010,14504 23021,14504 23044,14504 23055,14504 23066,14504 23078,14504 23089,14504 23112,14504 23123,14504 23135,14502 23146,14502 23169,14502 23180,14502 23192,14502 23203,14502 23214,14502 23237,14502 23248,14502 23260,14502 23271,14502 23282,14502 23305,14502 23317,14502 23328,14502 23339,14502 23351,14502 23373,14502 23385,14502 23396,14502 23408,14502 23419,14502 23442,14502 23453,14502 23464,14502 23476,14502 23498,14502 23510,14502 23521,14502 23533,14502 23544,14502 23567,14502 23578,14502 23589,14502 23601,14502 23612,14502 23635,14502 23646,14502 23658,14502 23669,14502 23680,14502 23703,14502 23715,14502 23726,14502 23737,14502 23749,14502 23771,14502 23783,14502 23794,14502 23805,14502 23828,14502 23840,14502 23851,14502 23862,14502 23874,14502 23896,14502 23908,14502 23919,14502 23931,14502 23942,14502 23965,14502 23976,14502 23987,14502 23999,14502 24010,14502 24033,14502 24044,14502 24056,14502 24067,14502 24090,14502 24101,14502 24112,14502 24124,14499 24135,14499 24158,14499 24169,14499 24181,14499 24192,14499 24203,14499 24226,14499 24238,14499 24249,14499 24260,14499 24272,14499 24294,14499 24306,14499 24317,14499 24328,14499 24340,14499 24363,14499 24374,14499 24385,14499 24397,14499 24419,14499 24431,14499 24442,14499 24454,14499 24465,14499 24488,14499 24499,14499 24510,14499 24522,14499 24533,14499 24556,14499 24567,14499 24579,14499 24590,14499 24601,14499 24624,14499 24636,14499 24647,14499 24658,14499 24670,14499 24692,14499 24704,14499 24715,14499 24726,14499 24749,14499 24761,14499 24772,14499 24783,14499 24795,14499 24817,14499 24829,14499 24840,14499 24852,14499 24863,14499 24886,14499 24897,14499 24908,14499 24920,14499 24931,14499 24954,14499 24965,14499 24977,14499 24988,14499 25011,14499 25022,14499 25033,14499 25045,14499 25056,14499 25079,14499 25090,14499 25102,14499 25113,14499 25124,14497 25147,14497 25159,14497 25170,14497 25181,14497 25193,14497 25215,14497 25227,14497 25238,14497 25250,14497 25261,14497 25284,14497 25295,14497 25306,14497 25318,14497 25340,14497 25352,14497 25363,14497 25375,14497 25386,14497 25409,14497 25420,14497 25431,14497 25443,14497 25454,14497 25477,14497 25488,14497 25500,14497 25511,14497 25522,14497 25545,14497 25556,14497 25568,14497 25579,14497 25591,14497 25613,14497 25625,14497 25636,14497 25647,14497 25670,14497 25682,14497 25693,14497 25704,14497 25716,14497 25738,14497 25750,14497 25761,14497 25773,14497 25784,14497 25807,14497 25818,14497 25829,14497 25841,14497 25852,14497 29591,14497"/>
 <text class="TextShape"><tspan class="TextParagraph" font-family="Liberation Sans, sans-serif" font-size="494px" font-weight="400"><tspan class="TextPosition" x="3370" y="17111"><tspan fill="rgb(0,0,0)" stroke="none">0</tspan></tspan></tspan></text>
 <text class="TextShape"><tspan class="TextParagraph" font-family="Liberation Sans, sans-serif" font-size="494px" font-weight="400"><tspan class="TextPosition" x="8893" y="17111"><tspan fill="rgb(0,0,0)" stroke="none">50</tspan></tspan></tspan></text>
 <text class="TextShape"><tspan class="TextParagraph" font-family="Liberation Sans, sans-serif" font-size="494px" font-weight="400"><tspan class="TextPosition" x="14416" y="17111"><tspan fill="rgb(0,0,0)" stroke="none">100</tspan></tspan></tspan></text>
 <text class="TextShape"><tspan class="TextParagraph" font-family="Liberation Sans, sans-serif" font-size="494px" font-weight="400"><tspan class="TextPosition" x="20085" y="17111"><tspan fill="rgb(0,0,0)" stroke="none">150</tspan></tspan></tspan></text>
 <text class="TextShape"><tspan class="TextParagraph" font-family="Liberation Sans, sans-serif" font-size="494px" font-weight="400"><tspan class="TextPosition" x="25753" y="17111"><tspan fill="rgb(0,0,0)" stroke="none">200</tspan></tspan></tspan></text>
 <text class="TextShape"><tspan class="TextParagraph" font-family="Liberation Sans, sans-serif" font-size="494px" font-weight="400"><tspan class="TextPosition" x="2975" y="16584"><tspan fill="rgb(0,0,0)" stroke="none">0</tspan></tspan></tspan></text>
 <text class="TextShape"><tspan class="TextParagraph" font-family="Liberation Sans, sans-serif" font-size="494px" font-weight="400"><tspan class="TextPosition" x="2393" y="14563"><tspan fill="rgb(0,0,0)" stroke="none">200</tspan></tspan></tspan></text>
 <text class="TextShape"><tspan class="TextParagraph" font-family="Liberation Sans, sans-serif" font-size="494px" font-weight="400"><tspan class="TextPosition" x="2393" y="12542"><tspan fill="rgb(0,0,0)" stroke="none">400</tspan></tspan></tspan></text>
 <text class="TextShape"><tspan class="TextParagraph" font-family="Liberation Sans, sans-serif" font-size="494px" font-weight="400"><tspan class="TextPosition" x="2393" y="10522"><tspan fill="rgb(0,0,0)" stroke="none">600</tspan></tspan></tspan></text>
 <text class="TextShape"><tspan class="TextParagraph" font-family="Liberation Sans, sans-serif" font-size="494px" font-weight="400"><tspan class="TextPosition" x="2393" y="8501"><tspan fill="rgb(0,0,0)" stroke="none">800</tspan></tspan></tspan></text>
 <text class="TextShape"><tspan class="TextParagraph" font-family="Liberation Sans, sans-serif" font-size="494px" font-weight="400"><tspan class="TextPosition" x="2102" y="6481"><tspan fill="rgb(0,0,0)" stroke="none">1000</tspan></tspan></tspan></text>
 <text class="TextShape"><tspan class="TextParagraph" font-family="Liberation Sans, sans-serif" font-size="494px" font-weight="400"><tspan class="TextPosition" x="2102" y="4460"><tspan fill="rgb(0,0,0)" stroke="none">1200</tspan></tspan></tspan></text>
 <text class="TextShape"><tspan class="TextParagraph" font-family="Liberation Sans, sans-serif" font-size="494px" font-weight="400"><tspan class="TextPosition" x="2102" y="2439"><tspan fill="rgb(0,0,0)" stroke="none">1400</tspan></tspan></tspan></text>
 <text class="TextShape"><tspan class="TextParagraph" font-family="Liberation Sans, sans-serif" font-size="635px" font-weight="400"><tspan class="TextPosition" x="10114" y="1287"><tspan fill="rgb(0,0,0)" stroke="none">Transaction size vs. Memory Usage vs. Runtime</tspan></tspan></tspan></text>
 <path fill="none" stroke="rgb(255,239,141)" stroke-width="80" stroke-linejoin="round" d="M 30427,8168 L 31227,8168"/>
 <path fill="none" stroke="rgb(253,154,43)" stroke-width="80" stroke-linejoin="round" d="M 30427,8825 L 31227,8825"/>
 <path fill="none" stroke="rgb(0,192,29)" stroke-width="80" stroke-linejoin="round" d="M 30427,9482 L 31227,9482"/>
 <path fill="none" stroke="rgb(112,214,224)" stroke-width="80" stroke-linejoin="round" d="M 30427,10138 L 31227,10138"/>
 <path fill="none" stroke="rgb(167,169,172)" stroke-width="80" stroke-linejoin="round" d="M 30427,10795 L 31227,10795"/>
 <text class="TextShape"><tspan class="TextParagraph" font-family="Liberation Sans, sans-serif" font-size="494px" font-weight="400"><tspan class="TextPosition" x="31335" y="8340"><tspan fill="rgb(0,0,0)" stroke="none">1</tspan></tspan></tspan></text>
 <text class="TextShape"><tspan class="TextParagraph" font-family="Liberation Sans, sans-serif" font-size="494px" font-weight="400"><tspan class="TextPosition" x="31335" y="8997"><tspan fill="rgb(0,0,0)" stroke="none">100</tspan></tspan></tspan></text>
 <text class="TextShape"><tspan class="TextParagraph" font-family="Liberation Sans, sans-serif" font-size="494px" font-weight="400"><tspan class="TextPosition" x="31335" y="9653"><tspan fill="rgb(0,0,0)" stroke="none">10000</tspan></tspan></tspan></text>
 <text class="TextShape"><tspan class="TextParagraph" font-family="Liberation Sans, sans-serif" font-size="494px" font-weight="400"><tspan class="TextPosition" x="31335" y="10310"><tspan fill="rgb(0,0,0)" stroke="none">100000</tspan></tspan></tspan></text>
 <text class="TextShape"><tspan class="TextParagraph" font-family="Liberation Sans, sans-serif" font-size="494px" font-weight="400"><tspan class="TextPosition" x="31335" y="10967"><tspan fill="rgb(0,0,0)" stroke="none">unlimited</tspan></tspan></tspan></text>
 <text class="TextShape"><tspan class="TextParagraph" font-family="Liberation Sans, sans-serif" font-size="564px" font-weight="400"><tspan class="TextPosition" x="13464" y="18271"><tspan fill="rgb(0,0,0)" stroke="none">Runtime (seconds)</tspan></tspan></tspan></text>
 <text class="TextShape" transform="rotate(-90 1152 12183)"><tspan class="TextParagraph" font-family="Liberation Sans, sans-serif" font-size="564px" font-weight="400"><tspan class="TextPosition" x="1152" y="12183"><tspan fill="rgb(0,0,0)" stroke="none">Memory Usage (MB)</tspan></tspan></tspan></text>
</svg>