<?xml version="1.0" encoding="UTF-8"?>
<!DOCTYPE svg PUBLIC "-//W3C//DTD SVG 1.1//EN" "http://www.w3.org/Graphics/SVG/1.1/DTD/svg11.dtd">
<svg width="282mm" height="159mm" viewBox="0 0 28200 15900" version="1.1" xmlns="http://www.w3.org/2000/svg" xmlns:xlink="http://www.w3.org/1999/xlink" stroke-width="28.222" stroke-linejoin="round" xml:space="preserve">
 <path fill="rgb(255,255,255)" stroke="none" d="M 14137,15889 L 13,15889 13,0 28261,0 28261,15889 14137,15889 Z"/>
 <path fill="none" stroke="rgb(179,179,179)" stroke-linejoin="round" d="M 15438,13398 L 3179,13398 3179,569 27697,569 27697,13398 15438,13398 Z"/>
 <path fill="none" stroke="rgb(179,179,179)" stroke-linejoin="round" d="M 27697,13397 L 3179,13397"/>
 <path fill="none" stroke="rgb(179,179,179)" stroke-linejoin="round" d="M 27697,11564 L 3179,11564"/>
 <path fill="none" stroke="rgb(179,179,179)" stroke-linejoin="round" d="M 27697,9731 L 3179,9731"/>
 <path fill="none" stroke="rgb(179,179,179)" stroke-linejoin="round" d="M 27697,7899 L 3179,7899"/>
 <path fill="none" stroke="rgb(179,179,179)" stroke-linejoin="round" d="M 27697,6066 L 3179,6066"/>
 <path fill="none" stroke="rgb(179,179,179)" stroke-linejoin="round" d="M 27697,4233 L 3179,4233"/>
 <path fill="none" stroke="rgb(179,179,179)" stroke-linejoin="round" d="M 27697,2400 L 3179,2400"/>
 <path fill="none" stroke="rgb(179,179,179)" stroke-linejoin="round" d="M 27697,568 L 3179,568"/>
 <path fill="none" stroke="rgb(179,179,179)" stroke-linejoin="round" d="M 3179,13547 L 3179,13397"/>
 <path fill="none" stroke="rgb(179,179,179)" stroke-linejoin="round" d="M 3179,13547 L 3179,13397"/>
 <path fill="none" stroke="rgb(179,179,179)" stroke-linejoin="round" d="M 6243,13547 L 6243,13397"/>
 <path fill="none" stroke="rgb(179,179,179)" stroke-linejoin="round" d="M 6243,13547 L 6243,13397"/>
 <path fill="none" stroke="rgb(179,179,179)" stroke-linejoin="round" d="M 9308,13547 L 9308,13397"/>
 <path fill="none" stroke="rgb(179,179,179)" stroke-linejoin="round" d="M 9308,13547 L 9308,13397"/>
 <path fill="none" stroke="rgb(179,179,179)" stroke-linejoin="round" d="M 12373,13547 L 12373,13397"/>
 <path fill="none" stroke="rgb(179,179,179)" stroke-linejoin="round" d="M 12373,13547 L 12373,13397"/>
 <path fill="none" stroke="rgb(179,179,179)" stroke-linejoin="round" d="M 15437,13547 L 15437,13397"/>
 <path fill="none" stroke="rgb(179,179,179)" stroke-linejoin="round" d="M 15437,13547 L 15437,13397"/>
 <path fill="none" stroke="rgb(179,179,179)" stroke-linejoin="round" d="M 18502,13547 L 18502,13397"/>
 <path fill="none" stroke="rgb(179,179,179)" stroke-linejoin="round" d="M 18502,13547 L 18502,13397"/>
 <path fill="none" stroke="rgb(179,179,179)" stroke-linejoin="round" d="M 21567,13547 L 21567,13397"/>
 <path fill="none" stroke="rgb(179,179,179)" stroke-linejoin="round" d="M 21567,13547 L 21567,13397"/>
 <path fill="none" stroke="rgb(179,179,179)" stroke-linejoin="round" d="M 24632,13547 L 24632,13397"/>
 <path fill="none" stroke="rgb(179,179,179)" stroke-linejoin="round" d="M 24632,13547 L 24632,13397"/>
 <path fill="none" stroke="rgb(179,179,179)" stroke-linejoin="round" d="M 27697,13547 L 27697,13397"/>
 <path fill="none" stroke="rgb(179,179,179)" stroke-linejoin="round" d="M 27697,13547 L 27697,13397"/>
 <path fill="none" stroke="rgb(179,179,179)" stroke-linejoin="round" d="M 3179,13397 L 27697,13397"/>
 <path fill="none" stroke="rgb(179,179,179)" stroke-linejoin="round" d="M 3029,13397 L 3179,13397"/>
 <path fill="none" stroke="rgb(179,179,179)" stroke-linejoin="round" d="M 3029,13397 L 3179,13397"/>
 <path fill="none" stroke="rgb(179,179,179)" stroke-linejoin="round" d="M 3029,11564 L 3179,11564"/>
 <path fill="none" stroke="rgb(179,179,179)" stroke-linejoin="round" d="M 3029,11564 L 3179,11564"/>
 <path fill="none" stroke="rgb(179,179,179)" stroke-linejoin="round" d="M 3029,9731 L 3179,9731"/>
 <path fill="none" stroke="rgb(179,179,179)" stroke-linejoin="round" d="M 3029,9731 L 3179,9731"/>
 <path fill="none" stroke="rgb(179,179,179)" stroke-linejoin="round" d="M 3029,7899 L 3179,7899"/>
 <path fill="none" stroke="rgb(179,179,179)" stroke-linejoin="round" d="M 3029,7899 L 3179,7899"/>
 <path fill="none" stroke="rgb(179,179,179)" stroke-linejoin="round" d="M 3029,6066 L 3179,6066"/>
 <path fill="none" stroke="rgb(179,179,179)" stroke-linejoin="round" d="M 3029,6066 L 3179,6066"/>
 <path fill="none" stroke="rgb(179,179,179)" stroke-linejoin="round" d="M 3029,4233 L 3179,4233"/>
 <path fill="none" stroke="rgb(179,179,179)" stroke-linejoin="round" d="M 3029,4233 L 3179,4233"/>
 <path fill="none" stroke="rgb(179,179,179)" stroke-linejoin="round" d="M 3029,2400 L 3179,2400"/>
 <path fill="none" stroke="rgb(179,179,179)" stroke-linejoin="round" d="M 3029,2400 L 3179,2400"/>
 <path fill="none" stroke="rgb(179,179,179)" stroke-linejoin="round" d="M 3029,568 L 3179,568"/>
 <path fill="none" stroke="rgb(179,179,179)" stroke-linejoin="round" d="M 3029,568 L 3179,568"/>
 <path fill="none" stroke="rgb(179,179,179)" stroke-linejoin="round" d="M 3179,13397 L 3179,568"/>
 <path fill="rgb(0,192,29)" stroke="none" d="M 25398,13397 L 26930,13397 26930,2791 25398,2791 25398,13397 Z"/>
 <path fill="rgb(0,192,29)" stroke="none" d="M 22333,13397 L 23865,13397 23865,5244 22333,5244 22333,13397 Z"/>
 <path fill="rgb(0,192,29)" stroke="none" d="M 19268,13397 L 20801,13397 20801,6303 19268,6303 19268,13397 Z"/>
 <path fill="rgb(0,192,29)" stroke="none" d="M 16203,13397 L 17736,13397 17736,6629 16203,6629 16203,13397 Z"/>
 <path fill="rgb(0,192,29)" stroke="none" d="M 13139,13397 L 14671,13397 14671,8493 13139,8493 13139,13397 Z"/>
 <path fill="rgb(0,192,29)" stroke="none" d="M 10074,13397 L 11607,13397 11607,11140 10074,11140 10074,13397 Z"/>
 <path fill="rgb(0,192,29)" stroke="none" d="M 7010,13397 L 8542,13397 8542,11601 7010,11601 7010,13397 Z"/>
 <path fill="rgb(0,192,29)" stroke="none" d="M 3945,13397 L 5477,13397 5477,11660 3945,11660 3945,13397 Z"/>
 <text class="TextShape"><tspan class="TextParagraph" font-family="Liberation Sans, sans-serif" font-size="494px" font-weight="400"><tspan class="TextPosition" x="4565" y="14097"><tspan fill="rgb(0,0,0)" stroke="none">1</tspan></tspan></tspan></text>
 <text class="TextShape"><tspan class="TextParagraph" font-family="Liberation Sans, sans-serif" font-size="494px" font-weight="400"><tspan class="TextPosition" x="7339" y="14097"><tspan fill="rgb(0,0,0)" stroke="none">100</tspan></tspan></tspan></text>
 <text class="TextShape"><tspan class="TextParagraph" font-family="Liberation Sans, sans-serif" font-size="494px" font-weight="400"><tspan class="TextPosition" x="10259" y="14097"><tspan fill="rgb(0,0,0)" stroke="none">1000</tspan></tspan></tspan></text>
 <text class="TextShape"><tspan class="TextParagraph" font-family="Liberation Sans, sans-serif" font-size="494px" font-weight="400"><tspan class="TextPosition" x="13178" y="14097"><tspan fill="rgb(0,0,0)" stroke="none">10000</tspan></tspan></tspan></text>
 <text class="TextShape"><tspan class="TextParagraph" font-family="Liberation Sans, sans-serif" font-size="494px" font-weight="400"><tspan class="TextPosition" x="16242" y="14097"><tspan fill="rgb(0,0,0)" stroke="none">25000</tspan></tspan></tspan></text>
 <text class="TextShape"><tspan class="TextParagraph" font-family="Liberation Sans, sans-serif" font-size="494px" font-weight="400"><tspan class="TextPosition" x="19307" y="14097"><tspan fill="rgb(0,0,0)" stroke="none">50000</tspan></tspan></tspan></text>
 <text class="TextShape"><tspan class="TextParagraph" font-family="Liberation Sans, sans-serif" font-size="494px" font-weight="400"><tspan class="TextPosition" x="22227" y="14097"><tspan fill="rgb(0,0,0)" stroke="none">100000</tspan></tspan></tspan></text>
 <text class="TextShape"><tspan class="TextParagraph" font-family="Liberation Sans, sans-serif" font-size="494px" font-weight="400"><tspan class="TextPosition" x="25146" y="14097"><tspan fill="rgb(0,0,0)" stroke="none">unlimited</tspan></tspan></tspan></text>
 <text class="TextShape"><tspan class="TextParagraph" font-family="Liberation Sans, sans-serif" font-size="459px" font-weight="400"><tspan class="TextPosition" x="2691" y="13544"><tspan fill="rgb(0,0,0)" stroke="none">0</tspan></tspan></tspan></text>
 <text class="TextShape"><tspan class="TextParagraph" font-family="Liberation Sans, sans-serif" font-size="459px" font-weight="400"><tspan class="TextPosition" x="2215" y="11711"><tspan fill="rgb(0,0,0)" stroke="none">200</tspan></tspan></tspan></text>
 <text class="TextShape"><tspan class="TextParagraph" font-family="Liberation Sans, sans-serif" font-size="459px" font-weight="400"><tspan class="TextPosition" x="2215" y="9878"><tspan fill="rgb(0,0,0)" stroke="none">400</tspan></tspan></tspan></text>
 <text class="TextShape"><tspan class="TextParagraph" font-family="Liberation Sans, sans-serif" font-size="459px" font-weight="400"><tspan class="TextPosition" x="2215" y="8045"><tspan fill="rgb(0,0,0)" stroke="none">600</tspan></tspan></tspan></text>
 <text class="TextShape"><tspan class="TextParagraph" font-family="Liberation Sans, sans-serif" font-size="459px" font-weight="400"><tspan class="TextPosition" x="2215" y="6212"><tspan fill="rgb(0,0,0)" stroke="none">800</tspan></tspan></tspan></text>
 <text class="TextShape"><tspan class="TextParagraph" font-family="Liberation Sans, sans-serif" font-size="459px" font-weight="400"><tspan class="TextPosition" x="1976" y="4379"><tspan fill="rgb(0,0,0)" stroke="none">1000</tspan></tspan></tspan></text>
 <text class="TextShape"><tspan class="TextParagraph" font-family="Liberation Sans, sans-serif" font-size="459px" font-weight="400"><tspan class="TextPosition" x="1976" y="2546"><tspan fill="rgb(0,0,0)" stroke="none">1200</tspan></tspan></tspan></text>
 <text class="TextShape"><tspan class="TextParagraph" font-family="Liberation Sans, sans-serif" font-size="459px" font-weight="400"><tspan class="TextPosition" x="1976" y="714"><tspan fill="rgb(0,0,0)" stroke="none">1400</tspan></tspan></tspan></text>
 <text class="TextShape"><tspan class="TextParagraph" font-family="Liberation Sans, sans-serif" font-size="564px" font-weight="400"><tspan class="TextPosition" x="12706" y="15195"><tspan fill="rgb(0,0,0)" stroke="none">Transaction Size</tspan></tspan></tspan></text>
 <text class="TextShape" transform="rotate(-90 1136 9549)"><tspan class="TextParagraph" font-family="Liberation Sans, sans-serif" font-size="564px" font-weight="400"><tspan class="TextPosition" x="1136" y="9549"><tspan fill="rgb(0,0,0)" stroke="none">Maximum Memory</tspan></tspan></tspan></text>
</svg>