<?xml version="1.0" encoding="UTF-8"?>
<!DOCTYPE svg PUBLIC "-//W3C//DTD SVG 1.1//EN" "http://www.w3.org/Graphics/SVG/1.1/DTD/svg11.dtd">
<svg width="275mm" height="155mm" viewBox="0 0 27500 15500" version="1.1" xmlns="http://www.w3.org/2000/svg" xmlns:xlink="http://www.w3.org/1999/xlink" stroke-width="28.222" stroke-linejoin="round" xml:space="preserve">
 <path fill="rgb(255,255,255)" stroke="none" d="M 13747,15471 L 13,15471 13,0 27481,0 27481,15471 13747,15471 Z"/>
 <path fill="none" stroke="rgb(179,179,179)" stroke-linejoin="round" d="M 15153,12988 L 3375,12988 3375,588 26932,588 26932,12988 15153,12988 Z"/>
 <path fill="none" stroke="rgb(179,179,179)" stroke-linejoin="round" d="M 26932,12987 L 3375,12987"/>
 <path fill="none" stroke="rgb(179,179,179)" stroke-linejoin="round" d="M 26932,10506 L 3375,10506"/>
 <path fill="none" stroke="rgb(179,179,179)" stroke-linejoin="round" d="M 26932,8026 L 3375,8026"/>
 <path fill="none" stroke="rgb(179,179,179)" stroke-linejoin="round" d="M 26932,5547 L 3375,5547"/>
 <path fill="none" stroke="rgb(179,179,179)" stroke-linejoin="round" d="M 26932,3067 L 3375,3067"/>
 <path fill="none" stroke="rgb(179,179,179)" stroke-linejoin="round" d="M 26932,587 L 3375,587"/>
 <path fill="none" stroke="rgb(179,179,179)" stroke-linejoin="round" d="M 3375,13137 L 3375,12987"/>
 <path fill="none" stroke="rgb(179,179,179)" stroke-linejoin="round" d="M 3375,13137 L 3375,12987"/>
 <path fill="none" stroke="rgb(179,179,179)" stroke-linejoin="round" d="M 6319,13137 L 6319,12987"/>
 <path fill="none" stroke="rgb(179,179,179)" stroke-linejoin="round" d="M 6319,13137 L 6319,12987"/>
 <path fill="none" stroke="rgb(179,179,179)" stroke-linejoin="round" d="M 9264,13137 L 9264,12987"/>
 <path fill="none" stroke="rgb(179,179,179)" stroke-linejoin="round" d="M 9264,13137 L 9264,12987"/>
 <path fill="none" stroke="rgb(179,179,179)" stroke-linejoin="round" d="M 12209,13137 L 12209,12987"/>
 <path fill="none" stroke="rgb(179,179,179)" stroke-linejoin="round" d="M 12209,13137 L 12209,12987"/>
 <path fill="none" stroke="rgb(179,179,179)" stroke-linejoin="round" d="M 15153,13137 L 15153,12987"/>
 <path fill="none" stroke="rgb(179,179,179)" stroke-linejoin="round" d="M 15153,13137 L 15153,12987"/>
 <path fill="none" stroke="rgb(179,179,179)" stroke-linejoin="round" d="M 18097,13137 L 18097,12987"/>
 <path fill="none" stroke="rgb(179,179,179)" stroke-linejoin="round" d="M 18097,13137 L 18097,12987"/>
 <path fill="none" stroke="rgb(179,179,179)" stroke-linejoin="round" d="M 21042,13137 L 21042,12987"/>
 <path fill="none" stroke="rgb(179,179,179)" stroke-linejoin="round" d="M 21042,13137 L 21042,12987"/>
 <path fill="none" stroke="rgb(179,179,179)" stroke-linejoin="round" d="M 23987,13137 L 23987,12987"/>
 <path fill="none" stroke="rgb(179,179,179)" stroke-linejoin="round" d="M 23987,13137 L 23987,12987"/>
 <path fill="none" stroke="rgb(179,179,179)" stroke-linejoin="round" d="M 26932,13137 L 26932,12987"/>
 <path fill="none" stroke="rgb(179,179,179)" stroke-linejoin="round" d="M 26932,13137 L 26932,12987"/>
 <path fill="none" stroke="rgb(179,179,179)" stroke-linejoin="round" d="M 3375,12987 L 26932,12987"/>
 <path fill="none" stroke="rgb(179,179,179)" stroke-linejoin="round" d="M 3225,12987 L 3375,12987"/>
 <path fill="none" stroke="rgb(179,179,179)" stroke-linejoin="round" d="M 3225,12987 L 3375,12987"/>
 <path fill="none" stroke="rgb(179,179,179)" stroke-linejoin="round" d="M 3225,10506 L 3375,10506"/>
 <path fill="none" stroke="rgb(179,179,179)" stroke-linejoin="round" d="M 3225,10506 L 3375,10506"/>
 <path fill="none" stroke="rgb(179,179,179)" stroke-linejoin="round" d="M 3225,8026 L 3375,8026"/>
 <path fill="none" stroke="rgb(179,179,179)" stroke-linejoin="round" d="M 3225,8026 L 3375,8026"/>
 <path fill="none" stroke="rgb(179,179,179)" stroke-linejoin="round" d="M 3225,5547 L 3375,5547"/>
 <path fill="none" stroke="rgb(179,179,179)" stroke-linejoin="round" d="M 3225,5547 L 3375,5547"/>
 <path fill="none" stroke="rgb(179,179,179)" stroke-linejoin="round" d="M 3225,3067 L 3375,3067"/>
 <path fill="none" stroke="rgb(179,179,179)" stroke-linejoin="round" d="M 3225,3067 L 3375,3067"/>
 <path fill="none" stroke="rgb(179,179,179)" stroke-linejoin="round" d="M 3225,587 L 3375,587"/>
 <path fill="none" stroke="rgb(179,179,179)" stroke-linejoin="round" d="M 3225,587 L 3375,587"/>
 <path fill="none" stroke="rgb(179,179,179)" stroke-linejoin="round" d="M 3375,12987 L 3375,587"/>
 <path fill="rgb(0,192,29)" stroke="none" d="M 24723,12987 L 26195,12987 26195,12064 24723,12064 24723,12987 Z"/>
 <path fill="rgb(0,192,29)" stroke="none" d="M 21778,12987 L 23251,12987 23251,12109 21778,12109 21778,12987 Z"/>
 <path fill="rgb(0,192,29)" stroke="none" d="M 18833,12987 L 20306,12987 20306,12092 18833,12092 18833,12987 Z"/>
 <path fill="rgb(0,192,29)" stroke="none" d="M 15889,12987 L 17361,12987 17361,12107 15889,12107 15889,12987 Z"/>
 <path fill="rgb(0,192,29)" stroke="none" d="M 12945,12987 L 14416,12987 14416,12116 12945,12116 12945,12987 Z"/>
 <path fill="rgb(0,192,29)" stroke="none" d="M 10000,12987 L 11473,12987 11473,12114 10000,12114 10000,12987 Z"/>
 <path fill="rgb(0,192,29)" stroke="none" d="M 7055,12987 L 8528,12987 8528,12010 7055,12010 7055,12987 Z"/>
 <path fill="rgb(0,192,29)" stroke="none" d="M 4111,12987 L 5583,12987 5583,1659 4111,1659 4111,12987 Z"/>
 <text class="TextShape"><tspan class="TextParagraph" font-family="Liberation Sans, sans-serif" font-size="494px" font-weight="400"><tspan class="TextPosition" x="4701" y="13687"><tspan fill="rgb(0,0,0)" stroke="none">1</tspan></tspan></tspan></text>
 <text class="TextShape"><tspan class="TextParagraph" font-family="Liberation Sans, sans-serif" font-size="494px" font-weight="400"><tspan class="TextPosition" x="7355" y="13687"><tspan fill="rgb(0,0,0)" stroke="none">100</tspan></tspan></tspan></text>
 <text class="TextShape"><tspan class="TextParagraph" font-family="Liberation Sans, sans-serif" font-size="494px" font-weight="400"><tspan class="TextPosition" x="10154" y="13687"><tspan fill="rgb(0,0,0)" stroke="none">1000</tspan></tspan></tspan></text>
 <text class="TextShape"><tspan class="TextParagraph" font-family="Liberation Sans, sans-serif" font-size="494px" font-weight="400"><tspan class="TextPosition" x="12953" y="13687"><tspan fill="rgb(0,0,0)" stroke="none">10000</tspan></tspan></tspan></text>
 <text class="TextShape"><tspan class="TextParagraph" font-family="Liberation Sans, sans-serif" font-size="494px" font-weight="400"><tspan class="TextPosition" x="15898" y="13687"><tspan fill="rgb(0,0,0)" stroke="none">25000</tspan></tspan></tspan></text>
 <text class="TextShape"><tspan class="TextParagraph" font-family="Liberation Sans, sans-serif" font-size="494px" font-weight="400"><tspan class="TextPosition" x="18843" y="13687"><tspan fill="rgb(0,0,0)" stroke="none">50000</tspan></tspan></tspan></text>
 <text class="TextShape"><tspan class="TextParagraph" font-family="Liberation Sans, sans-serif" font-size="494px" font-weight="400"><tspan class="TextPosition" x="21642" y="13687"><tspan fill="rgb(0,0,0)" stroke="none">100000</tspan></tspan></tspan></text>
 <text class="TextShape"><tspan class="TextParagraph" font-family="Liberation Sans, sans-serif" font-size="494px" font-weight="400"><tspan class="TextPosition" x="24441" y="13687"><tspan fill="rgb(0,0,0)" stroke="none">unlimited</tspan></tspan></tspan></text>
 <text class="TextShape"><tspan class="TextParagraph" font-family="Liberation Sans, sans-serif" font-size="494px" font-weight="400"><tspan class="TextPosition" x="2834" y="13160"><tspan fill="rgb(0,0,0)" stroke="none">0</tspan></tspan></tspan></text>
 <text class="TextShape"><tspan class="TextParagraph" font-family="Liberation Sans, sans-serif" font-size="494px" font-weight="400"><tspan class="TextPosition" x="2252" y="10679"><tspan fill="rgb(0,0,0)" stroke="none">500</tspan></tspan></tspan></text>
 <text class="TextShape"><tspan class="TextParagraph" font-family="Liberation Sans, sans-serif" font-size="494px" font-weight="400"><tspan class="TextPosition" x="1961" y="8199"><tspan fill="rgb(0,0,0)" stroke="none">1000</tspan></tspan></tspan></text>
 <text class="TextShape"><tspan class="TextParagraph" font-family="Liberation Sans, sans-serif" font-size="494px" font-weight="400"><tspan class="TextPosition" x="1961" y="5719"><tspan fill="rgb(0,0,0)" stroke="none">1500</tspan></tspan></tspan></text>
 <text class="TextShape"><tspan class="TextParagraph" font-family="Liberation Sans, sans-serif" font-size="494px" font-weight="400"><tspan class="TextPosition" x="1961" y="3239"><tspan fill="rgb(0,0,0)" stroke="none">2000</tspan></tspan></tspan></text>
 <text class="TextShape"><tspan class="TextParagraph" font-family="Liberation Sans, sans-serif" font-size="494px" font-weight="400"><tspan class="TextPosition" x="1961" y="759"><tspan fill="rgb(0,0,0)" stroke="none">2500</tspan></tspan></tspan></text>
 <text class="TextShape"><tspan class="TextParagraph" font-family="Liberation Sans, sans-serif" font-size="564px" font-weight="400"><tspan class="TextPosition" x="11350" y="14777"><tspan fill="rgb(0,0,0)" stroke="none">Transaction Size (Rows)</tspan></tspan></tspan></text>
 <text class="TextShape" transform="rotate(-90 1136 9433)"><tspan class="TextParagraph" font-family="Liberation Sans, sans-serif" font-size="564px" font-weight="400"><tspan class="TextPosition" x="1136" y="9433"><tspan fill="rgb(0,0,0)" stroke="none">Runtime (seconds)</tspan></tspan></tspan></text>
</svg>